<?xml version="1.0" encoding="UTF-8"?><svg id="Layer_1" xmlns="http://www.w3.org/2000/svg" viewBox="0 0 192.4 55.69"><defs><style>.cls-1{fill:#5ba453;}.cls-2{fill:#fff;}</style></defs><path class="cls-1" d="M39.62,27.73c-1.75-.62-3.61-.96-5.46-.81-4.56,.36-7.95,2.89-9.82,6.26l-.02-14.02c1.02,.26,2.06,.4,3.09,.4,3.83,0,7.61-1.79,10.03-5.19,1.53-2.14,2.24-4.76,2.24-7.39v-.06c0-.11-.07-.2-.17-.24h0c-2.82-1.01-5.94-1.11-8.75-.06-4.79,1.79-7.8,6.24-7.96,11.11,0,.03-.02,.06-.02,.09v.22s0,.06,0,.09v.54s0,0,0,0v4.53c-1.85-3.39-5.25-5.94-9.79-6.33-1.85-.16-3.71,.17-5.45,.79h0c-.08,.03-.13,.1-.13,.18v.09c0,2.63,.71,5.25,2.23,7.4,2.42,3.41,6.2,5.2,10.03,5.2,1.05,0,2.09-.13,3.12-.4v8.49c0,.17-.02,.35-.02,.52v.54s.03,.01,.03,.01v10.94c.01,.42,.36,.76,.78,.76h0c.42,0,.76-.34,.76-.77v-10.44c1,.26,2.03,.39,3.05,.39,3.83,0,7.61-1.79,10.03-5.19,1.53-2.14,2.24-4.76,2.24-7.39v-.17s-.02-.07-.06-.09h0Zm-6.01-11.66c-2.44,1.72-5.48,2.32-8.37,1.73l12.78-8.9c-.43,2.87-2.01,5.47-4.41,7.17Zm-4.75-6.73c2.44-1.72,5.47-2.33,8.35-1.73l-12.76,8.88c.44-2.86,2.01-5.45,4.41-7.15ZM13.49,27.04c-2.41-1.71-3.99-4.33-4.42-7.21l12.74,8.95c-2.88,.58-5.89-.03-8.32-1.74Zm-3.56-8.48c2.87-.58,5.89,.03,8.31,1.74,2.41,1.7,3.99,4.32,4.41,7.2l-12.73-8.94Zm18.92,11.79c2.44-1.72,5.47-2.33,8.35-1.73l-12.76,8.88c.44-2.86,2.01-5.45,4.41-7.15Zm4.75,6.73c-2.44,1.72-5.48,2.32-8.37,1.73l12.78-8.9c-.43,2.87-2.01,5.47-4.41,7.17Z"/><g><path class="cls-2" d="M49.25,38.22h0c.38-.74,1.32-.99,1.99-.51,2.23,1.58,5.44,2.65,8.74,2.65,5.65,0,8.11-2.37,8.11-5.35,0-8.28-18.58-3.19-18.58-14.36,0-4.44,3.45-8.28,11.12-8.28,2.94,0,5.97,.74,8.3,2.02,.62,.34,.87,1.11,.59,1.76h0c-.32,.75-1.2,1.06-1.91,.69-2.26-1.17-4.74-1.74-6.98-1.74-5.52,0-7.98,2.46-7.98,5.48,0,8.28,18.59,3.28,18.59,14.27,0,4.44-3.54,8.24-11.25,8.24-4.02,0-7.98-1.26-10.38-3.17-.51-.4-.65-1.11-.35-1.69Z"/><path class="cls-2" d="M92.07,28.79v12.7c0,.73-.59,1.32-1.32,1.32h-.28c-.73,0-1.32-.59-1.32-1.32v-2.21c-1.38,2.33-4.05,3.75-7.8,3.75-5.13,0-8.28-2.67-8.28-6.6,0-3.49,2.24-6.43,8.75-6.43h7.2v-1.38c0-3.88-2.2-5.99-6.42-5.99-2.39,0-4.66,.69-6.42,1.82-.64,.41-1.49,.25-1.88-.41h0c-.37-.61-.2-1.4,.39-1.8,2.39-1.59,5.62-2.43,8.97-2.28,4.71,.21,8.42,4.1,8.42,8.81Zm-3.06,7.21v-3.71h-7.11c-4.4,0-5.82,1.72-5.82,4.05,0,2.63,2.11,4.27,5.73,4.27s5.99-1.64,7.2-4.61Z"/><path class="cls-2" d="M118.2,31.48c0,6.9-4.83,11.56-11.3,11.56-3.62,0-6.73-1.55-8.62-4.48v11.17c0,.81-.65,1.46-1.46,1.46h-.14c-.81,0-1.46-.65-1.46-1.46V21.6c0-.81,.65-1.46,1.46-1.46h0c.81,0,1.46,.65,1.46,1.46v3.02c1.85-3.02,5-4.66,8.75-4.66,6.47,0,11.3,4.66,11.3,11.51Zm-3.06,0c0-5.26-3.67-8.84-8.45-8.84s-8.45,3.58-8.45,8.84,3.62,8.84,8.45,8.84,8.45-3.54,8.45-8.84Z"/><path class="cls-2" d="M122.46,10.82h.14c.81,0,1.46,.65,1.46,1.46v29.07c0,.81-.65,1.46-1.46,1.46h-.14c-.81,0-1.46-.65-1.46-1.46V12.29c0-.81,.65-1.46,1.46-1.46Z"/><path class="cls-2" d="M128.46,12.98c0-1.16,.99-2.16,2.24-2.16s2.24,.95,2.24,2.11c0,1.25-.95,2.24-2.24,2.24s-2.24-.99-2.24-2.2Zm2.22,7.16h0c.84,0,1.53,.68,1.53,1.53v21.16h-3.06V21.67c0-.84,.68-1.53,1.53-1.53Z"/><path class="cls-2" d="M158.17,29.67v11.69c0,.81-.65,1.46-1.46,1.46h-.14c-.81,0-1.46-.65-1.46-1.46v-11.39c0-4.79-2.5-7.24-6.81-7.24-4.87,0-7.93,3.02-7.93,8.19v10.44c0,.81-.65,1.46-1.46,1.46h-.14c-.81,0-1.46-.65-1.46-1.46V21.6c0-.81,.65-1.46,1.46-1.46h0c.81,0,1.46,.65,1.46,1.46v2.72c1.64-2.76,4.7-4.36,8.62-4.36,5.52,0,9.31,3.19,9.31,9.7Z"/><path class="cls-2" d="M183.57,20.14c.78,0,1.41,.63,1.41,1.41v18.51c0,7.81-3.84,11.34-11.34,11.34-3.59,0-7.11-.94-9.52-2.65-.61-.43-.74-1.29-.33-1.92h0c.44-.66,1.33-.81,2-.36,2.09,1.4,4.85,2.21,7.77,2.21,5.74,0,8.37-2.63,8.37-8.24v-2.89c-1.9,2.89-5.13,4.4-8.84,4.4-6.47,0-11.38-4.53-11.38-11.04s4.92-10.95,11.38-10.95c3.79,0,7.07,1.55,8.97,4.53v-2.94c0-.78,.63-1.41,1.41-1.41h.11Zm-1.56,10.78c0-4.92-3.62-8.28-8.62-8.28s-8.58,3.36-8.58,8.28,3.58,8.32,8.58,8.32,8.62-3.41,8.62-8.32Z"/></g></svg>
