<svg width="43" height="43" viewBox="0 0 43 43" fill="none" xmlns="http://www.w3.org/2000/svg">
<path d="M39.1484 6.80929C30.6903 3.79735 21.2831 5.09015 13.9527 10.2613C6.63602 15.4325 2.27627 23.8769 2.29003 32.8577V34.0543L3.43154 34.4669C6.45723 35.5534 9.57919 36.076 12.7149 36.076C18.3399 36.076 23.91 34.3568 28.6273 31.0286C35.944 25.8574 40.3037 17.3992 40.29 8.41841V7.22189L39.1484 6.80929V6.80929ZM15.9331 13.067C21.4206 9.18858 28.256 7.79952 34.7612 9.14733L6.01713 29.1581C6.9936 22.7217 10.5557 16.8766 15.9331 13.067ZM33.881 20.0948C32.1343 23.2856 29.6863 26.0774 26.6468 28.2092C21.1593 32.0738 14.3103 33.4629 7.77753 32.1151L36.5629 12.0905C36.1503 14.9236 35.2288 17.6193 33.881 20.0948Z" fill="#5BA453"/>
</svg>
