<svg width="1280" height="720" xmlns="http://www.w3.org/2000/svg" xmlns:xlink="http://www.w3.org/1999/xlink" overflow="hidden"><defs><clipPath id="clip0"><path d="M0 0 1280 0 1280 720 0 720Z" fill-rule="evenodd" clip-rule="evenodd"/></clipPath></defs><g clip-path="url(#clip0)"><rect x="0" y="0" width="1280" height="720" fill="#E9EAED" fill-opacity="0"/><rect x="98.5001" y="379.5" width="1065" height="125" stroke="#3465A4" stroke-linejoin="round" stroke-miterlimit="10" fill="#3B5998"/><text fill="#FFFFFF" font-family="Arial,Arial_MSFontService,sans-serif" font-weight="400" font-size="24" transform="translate(107.291 493)">Linux Kernel</text><path d="M117.343 82.5001C102.922 82.5001 88.5001 96.8271 88.5001 111.154L88.5001 225.771C88.5001 240.098 102.922 254.462 117.343 254.462L434.619 254.462C449.041 254.462 463.462 240.098 463.462 225.771L463.462 111.154C463.462 96.8271 449.041 82.5001 434.619 82.5001L117.343 82.5001" stroke="#3465A4" stroke-linejoin="round" stroke-miterlimit="10" fill="#5890F0" fill-rule="evenodd"/><text font-family="Arial,Arial_MSFontService,sans-serif" font-weight="400" font-size="24" transform="translate(232.149 177)">EdenFS</text><rect x="434.5" y="120.5" width="33" height="67" stroke="#3465A4" stroke-linejoin="round" stroke-miterlimit="10" fill="#FAA61A"/><text font-family="Arial,Arial_MSFontService,sans-serif" font-weight="400" font-size="24" transform="matrix(6.12323e-17 1 -1 6.12323e-17 442.024 130)">thrift</text><rect x="107.5" y="360.5" width="77" height="38" stroke="#3465A4" stroke-linejoin="round" stroke-miterlimit="10" fill="#FAA61A"/><text font-family="Arial,Arial_MSFontService,sans-serif" font-weight="400" font-size="24" transform="translate(113.869 388)">FUSE</text><path d="M147 261.167 147 353.795 146 353.795 146 261.167ZM142.5 262.5 146.5 254.5 150.5 262.5ZM150.5 352.462 146.5 360.462 142.5 352.462Z"/><path d="M238.019 402.277 240.958 404.651 249.069 410.765 257.239 416.44 265.354 421.809 273.523 426.734 281.695 431.288 298.048 439.401 314.326 446.073 330.543 451.498 346.633 455.675 362.537 458.73 378.316 460.725 393.786 461.785 409.004 461.908 423.915 461.284 438.448 459.848 452.674 457.789 466.399 455.106 479.692 451.985 492.42 448.428 504.651 444.496 516.322 440.314 527.307 436.007 537.664 431.515 547.34 427.02 556.265 422.589 564.441 418.282 571.74 414.164 578.232 410.356 583.784 406.925 588.404 403.991 591.438 401.904 592.038 402.776 588.971 404.884 584.341 407.825 578.768 411.269 572.26 415.086 564.934 419.218 556.735 423.536 547.785 427.98 538.086 432.486 527.693 436.993 516.679 441.311 504.974 445.504 492.705 449.447 479.933 453.015 466.602 456.144 452.826 458.836 438.552 460.902 423.96 462.341 408.996 462.967 393.714 462.84 378.184 461.775 362.338 459.77 346.367 456.7 330.207 452.502 313.924 447.052 297.577 440.349 281.18 432.212 272.977 427.641 264.771 422.691 256.636 417.31 248.432 411.61 240.293 405.474 237.354 403.101ZM236.21 406.639 232.5 398.5 241.237 400.415ZM588.344 399.839 597.188 398.5 592.952 406.378Z"/><path d="M971.5 552.125C971.5 557.441 1012.47 561.75 1063 561.75 1113.53 561.75 1154.5 557.441 1154.5 552.125L1154.5 609.875C1154.5 615.191 1113.53 619.5 1063 619.5 1012.47 619.5 971.5 615.191 971.5 609.875Z" fill="#F34F46" fill-rule="evenodd"/><path d="M971.5 552.125C971.5 546.809 1012.47 542.5 1063 542.5 1113.53 542.5 1154.5 546.809 1154.5 552.125 1154.5 557.441 1113.53 561.75 1063 561.75 1012.47 561.75 971.5 557.441 971.5 552.125Z" fill="#F89590" fill-rule="evenodd"/><path d="M1154.5 552.125C1154.5 557.441 1113.53 561.75 1063 561.75 1012.47 561.75 971.5 557.441 971.5 552.125 971.5 546.809 1012.47 542.5 1063 542.5 1113.53 542.5 1154.5 546.809 1154.5 552.125ZM1154.5 552.125 1154.5 609.875C1154.5 615.191 1113.53 619.5 1063 619.5 1012.47 619.5 971.5 615.191 971.5 609.875L971.5 552.125" stroke="#3465A4" stroke-linejoin="round" stroke-miterlimit="10" fill="none" fill-rule="evenodd"/><text font-family="Arial,Arial_MSFontService,sans-serif" font-weight="400" font-size="24" transform="translate(1039.34 594)">Disk</text><path d="M1063 535.796 1063 405.167 1064 405.167 1064 535.796ZM1067.5 534.462 1063.5 542.462 1059.5 534.462ZM1059.5 406.5 1063.5 398.5 1067.5 406.5Z"/><rect x="1003.5" y="360.5" width="120" height="38" stroke="#3465A4" stroke-linejoin="round" stroke-miterlimit="10" fill="#F34F46"/><text font-family="Arial,Arial_MSFontService,sans-serif" font-weight="400" font-size="24" transform="translate(1036.03 388)">/data</text><path d="M779.5 552.125C779.5 557.441 820.466 561.75 871 561.75 921.534 561.75 962.5 557.441 962.5 552.125L962.5 609.875C962.5 615.191 921.534 619.5 871 619.5 820.466 619.5 779.5 615.191 779.5 609.875Z" fill="#F34F46" fill-rule="evenodd"/><path d="M779.5 552.125C779.5 546.809 820.466 542.5 871 542.5 921.534 542.5 962.5 546.809 962.5 552.125 962.5 557.441 921.534 561.75 871 561.75 820.466 561.75 779.5 557.441 779.5 552.125Z" fill="#F89590" fill-rule="evenodd"/><path d="M962.5 552.125C962.5 557.441 921.534 561.75 871 561.75 820.466 561.75 779.5 557.441 779.5 552.125 779.5 546.809 820.466 542.5 871 542.5 921.534 542.5 962.5 546.809 962.5 552.125ZM962.5 552.125 962.5 609.875C962.5 615.191 921.534 619.5 871 619.5 820.466 619.5 779.5 615.191 779.5 609.875L779.5 552.125" stroke="#3465A4" stroke-linejoin="round" stroke-miterlimit="10" fill="none" fill-rule="evenodd"/><text font-family="Arial,Arial_MSFontService,sans-serif" font-weight="400" font-size="24" transform="translate(847.336 594)">Disk</text><path d="M0.500005 6.66657 0.5001 137.333-0.4999 137.333-0.499995 6.66657ZM-3.99999 8 0 0 4.00001 8ZM4.0001 136 0.000104987 144-3.9999 136Z" transform="matrix(1 0 0 -1 871.5 542.5)"/><rect x="811.5" y="360.5" width="120" height="38" stroke="#3465A4" stroke-linejoin="round" stroke-miterlimit="10" fill="#F34F46"/><text font-family="Arial,Arial_MSFontService,sans-serif" font-weight="400" font-size="24" transform="translate(867.335 388)">/</text><rect x="659.5" y="360.5" width="120" height="38" stroke="#3465A4" stroke-linejoin="round" stroke-miterlimit="10" fill="#F34F46"/><text font-family="Arial,Arial_MSFontService,sans-serif" font-weight="400" font-size="24" transform="translate(678.829 388)">opsfiles</text><rect x="386.5" y="360.5" width="120" height="38" stroke="#3465A4" stroke-linejoin="round" stroke-miterlimit="10" fill="#F34F46"/><text font-family="Arial,Arial_MSFontService,sans-serif" font-weight="400" font-size="24" transform="translate(393.236 388)">fbsource1</text><rect x="525.5" y="360.5" width="120" height="38" stroke="#3465A4" stroke-linejoin="round" stroke-miterlimit="10" fill="#F34F46"/><text font-family="Arial,Arial_MSFontService,sans-serif" font-weight="400" font-size="24" transform="translate(532.436 388)">fbsource2</text><rect x="280.5" y="360.5" width="77" height="38" stroke="#3465A4" stroke-linejoin="round" stroke-miterlimit="10" fill="#FAA61A"/><text font-family="Arial,Arial_MSFontService,sans-serif" font-weight="400" font-size="24" transform="translate(286.669 388)">FUSE</text><rect x="194.5" y="360.5" width="77" height="38" stroke="#3465A4" stroke-linejoin="round" stroke-miterlimit="10" fill="#FAA61A"/><text font-family="Arial,Arial_MSFontService,sans-serif" font-weight="400" font-size="24" transform="translate(200.269 388)">FUSE</text><path d="M161.224 401.958 167.996 406.82 180.23 414.934 192.59 422.55 204.952 429.667 217.374 436.283 229.858 442.4 242.342 448.018 254.887 453.135 267.435 457.817 279.982 462.061 292.529 465.869 305.015 469.302 317.56 472.298 330.044 474.857 342.531 477.104 354.892 478.977 379.557 481.662 403.967 483.034 428.004 483.221 451.605 482.346 474.77 480.473 497.311 477.725 519.29 474.165 540.586 469.981 561.068 465.235 580.739 459.989 599.537 454.43 617.399 448.622 634.136 442.689 649.874 436.693 664.362 430.76 677.665 425.014 689.593 419.581 700.208 414.461 704.951 412.089 709.326 409.902 713.385 407.841 717.001 405.908 720.183 404.161 723.06 402.598 725.218 401.376 725.739 402.297 723.565 403.527 720.692 405.089 717.499 406.842 713.865 408.784 709.799 410.848 705.424 413.036 700.667 415.414 690.032 420.544 678.085 425.986 664.763 431.74 650.251 437.682 634.489 443.686 617.726 449.628 599.838 455.445 581.011 461.011 561.307 466.266 540.79 471.019 519.46 475.21 497.439 478.775 474.855 481.527 451.645 483.404 427.996 484.279 403.908 484.091 379.443 482.714 354.733 480.023 342.344 478.146 329.831 475.893 317.315 473.327 304.735 470.323 292.221 466.881 279.643 463.064 267.065 458.808 254.488 454.115 241.908 448.983 229.392 443.35 216.876 437.217 204.424 430.584 192.035 423.451 179.645 415.816 167.379 407.68 160.607 402.818ZM159.666 406.415 155.5 398.5 164.331 399.916ZM722.322 399.041 731.25 398.5 726.326 405.967Z"/><path d="M323.528 403.838 325.321 406.653 330.738 413.999 336.213 420.342 341.622 425.686 347.085 430.153 352.478 433.682 357.868 436.468 363.19 438.506 368.506 439.862 373.694 440.538 378.819 440.596 383.829 440.16 388.778 439.23 393.542 437.866 398.255 436.129 402.777 434.02 411.296 429.043 419.064 423.385 425.902 417.414 431.817 411.622 436.545 406.395 438.97 403.408 439.791 404.075 437.33 407.105 432.558 412.378 426.598 418.211 419.686 424.24 411.829 429.957 403.223 434.98 398.62 437.122 393.833 438.884 388.973 440.27 383.921 441.215 378.806 441.654 373.556 441.587 368.244 440.888 362.81 439.494 357.382 437.408 351.898 434.568 346.415 430.972 340.878 426.439 335.412 421.033 329.887 414.627 324.429 407.222 322.636 404.407ZM320.425 407.396 319.5 398.5 327.172 403.098ZM435.412 402.318 443.5 398.5 441.702 407.262Z"/><path d="M233 261.167 233 353.795 232 353.795 232 261.167ZM228.5 262.5 232.5 254.5 236.5 262.5ZM236.5 352.462 232.5 360.462 228.5 352.462Z"/><path d="M320 261.167 320 353.795 319 353.795 319 261.167ZM315.5 262.5 319.5 254.5 323.5 262.5ZM323.5 352.462 319.5 360.462 315.5 352.462Z"/><path d="M424.5 254.5 1067.46 360.462" fill="#729FCF" fill-rule="evenodd"/><path d="M431.163 255.091 1060.96 358.884 1060.8 359.871 431.001 256.078ZM431.743 259.748 424.5 254.5 433.044 251.854ZM1060.22 355.214 1067.46 360.462 1058.92 363.108Z"/></g></svg>