<svg width="1280" height="720" xmlns="http://www.w3.org/2000/svg" xmlns:xlink="http://www.w3.org/1999/xlink" overflow="hidden"><defs><clipPath id="clip0"><path d="M0 0 1280 0 1280 720 0 720Z" fill-rule="evenodd" clip-rule="evenodd"/></clipPath></defs><g clip-path="url(#clip0)"><rect x="0" y="0" width="1280" height="720" fill="#E9EAED" fill-opacity="0"/><path d="M123.854 106.5C76.6579 106.5 29.5001 153.629 29.5001 200.796L29.5001 578.129C29.5001 625.296 76.6579 672.462 123.854 672.462L1154.07 672.462C1201.27 672.462 1248.46 625.296 1248.46 578.129L1248.46 200.796C1248.46 153.629 1201.27 106.5 1154.07 106.5L123.854 106.5" stroke="#3465A4" stroke-linejoin="round" stroke-miterlimit="10" fill="#5890F0" fill-rule="evenodd"/><rect x="624.5" y="336.5" width="518" height="307" stroke="#3465A4" stroke-linejoin="round" stroke-miterlimit="10" fill="#F34F46"/><text font-family="Arial,Arial_MSFontService,sans-serif" font-weight="400" font-size="24" transform="translate(816.613 364)">Repositories</text><rect x="643.5" y="434.5" width="231" height="197" stroke="#3465A4" stroke-linejoin="round" stroke-miterlimit="10" fill="#54C7EC"/><text font-family="Arial,Arial_MSFontService,sans-serif" font-weight="400" font-size="24" transform="translate(695.14 462)">ObjectStore</text><rect x="653.5" y="557.5" width="211" height="61" stroke="#3465A4" stroke-linejoin="round" stroke-miterlimit="10" fill="#60CE82"/><text font-family="Arial,Arial_MSFontService,sans-serif" font-weight="400" font-size="24" transform="translate(687.147 596)">BackingStore</text><rect x="893.5" y="434.5" width="230" height="197" stroke="#3465A4" stroke-linejoin="round" stroke-miterlimit="10" fill="#54C7EC"/><text font-family="Arial,Arial_MSFontService,sans-serif" font-weight="400" font-size="24" transform="translate(944.74 462)">ObjectStore</text><rect x="653.5" y="482.5" width="461" height="61" stroke="#3465A4" stroke-linejoin="round" stroke-miterlimit="10" fill="#3B5998"/><text fill="#FFFFFF" font-family="Arial,Arial_MSFontService,sans-serif" font-weight="400" font-size="24" transform="translate(825.933 521)">LocalStore</text><rect x="902.5" y="557.5" width="212" height="61" stroke="#3465A4" stroke-linejoin="round" stroke-miterlimit="10" fill="#60CE82"/><text font-family="Arial,Arial_MSFontService,sans-serif" font-weight="400" font-size="24" transform="translate(936.747 596)">BackingStore<tspan fill="#FFFFFF" x="-244.98" y="-180">fbsource</tspan><tspan fill="#FFFFFF" x="13.3083" y="-180">opsfiles</tspan></text><rect x="624.5" y="182.5" width="518" height="87" stroke="#3465A4" stroke-linejoin="round" stroke-miterlimit="10" fill="#FAA61A"/><text font-family="Arial,Arial_MSFontService,sans-serif" font-weight="400" font-size="24" transform="translate(810.627 234)">Thrift Handler<tspan x="-661.633" y="180">fbsource1</tspan><tspan x="-402.433" y="178">fbsource2</tspan><tspan x="-534.44" y="-89">opsfiles</tspan></text><rect x="192.5" y="154.5" width="250" height="220" stroke="#3465A4" stroke-linejoin="round" stroke-miterlimit="10" fill="#3B5998"/><text fill="#FFFFFF" font-family="Arial,Arial_MSFontService,sans-serif" font-weight="400" font-size="24" transform="translate(255.527 181)">EdenMount</text><rect x="202.5" y="326.5" width="230" height="39" stroke="#3465A4" stroke-linejoin="round" stroke-miterlimit="10" fill="#FAA61A"/><text font-family="Arial,Arial_MSFontService,sans-serif" font-weight="400" font-size="24" transform="translate(245.54 354)">FuseChannel</text><rect x="202.5" y="269.5" width="115" height="48" stroke="#3465A4" stroke-linejoin="round" stroke-miterlimit="10" fill="#F34F46"/><text font-family="Arial,Arial_MSFontService,sans-serif" font-weight="400" font-size="24" transform="translate(217.913 301)">Overlay</text><rect x="202.5" y="192.5" width="230" height="67" stroke="#3465A4" stroke-linejoin="round" stroke-miterlimit="10" fill="#60CE82"/><text font-family="Arial,Arial_MSFontService,sans-serif" font-weight="400" font-size="24" transform="translate(280.84 234)">Inodes</text><rect x="326.5" y="269.5" width="106" height="48" stroke="#3465A4" stroke-linejoin="round" stroke-miterlimit="10" fill="#8C72CB"/><text font-family="Arial,Arial_MSFontService,sans-serif" font-weight="400" font-size="24" transform="translate(339.913 301)">Journal</text><rect x="67.5001" y="422.5" width="250" height="221" stroke="#3465A4" stroke-linejoin="round" stroke-miterlimit="10" fill="#3B5998"/><text fill="#FFFFFF" font-family="Arial,Arial_MSFontService,sans-serif" font-weight="400" font-size="24" transform="translate(130.727 450)">EdenMount</text><rect x="77.5001" y="595.5" width="230" height="39" stroke="#3465A4" stroke-linejoin="round" stroke-miterlimit="10" fill="#FAA61A"/><text font-family="Arial,Arial_MSFontService,sans-serif" font-weight="400" font-size="24" transform="translate(120.74 623)">FuseChannel</text><rect x="77.5001" y="538.5" width="115" height="48" stroke="#3465A4" stroke-linejoin="round" stroke-miterlimit="10" fill="#F34F46"/><text font-family="Arial,Arial_MSFontService,sans-serif" font-weight="400" font-size="24" transform="translate(93.1133 570)">Overlay</text><rect x="77.5001" y="461.5" width="230" height="67" stroke="#3465A4" stroke-linejoin="round" stroke-miterlimit="10" fill="#60CE82"/><text font-family="Arial,Arial_MSFontService,sans-serif" font-weight="400" font-size="24" transform="translate(156.04 503)">Inodes</text><rect x="202.5" y="538.5" width="105" height="48" stroke="#3465A4" stroke-linejoin="round" stroke-miterlimit="10" fill="#8C72CB"/><text font-family="Arial,Arial_MSFontService,sans-serif" font-weight="400" font-size="24" transform="translate(215.113 570)">Journal</text><rect x="336.5" y="422.5" width="250" height="221" stroke="#3465A4" stroke-linejoin="round" stroke-miterlimit="10" fill="#3B5998"/><text fill="#FFFFFF" font-family="Arial,Arial_MSFontService,sans-serif" font-weight="400" font-size="24" transform="translate(399.527 450)">EdenMount</text><rect x="346.5" y="595.5" width="230" height="39" stroke="#3465A4" stroke-linejoin="round" stroke-miterlimit="10" fill="#FAA61A"/><text font-family="Arial,Arial_MSFontService,sans-serif" font-weight="400" font-size="24" transform="translate(389.54 623)">FuseChannel</text><rect x="346.5" y="538.5" width="115" height="48" stroke="#3465A4" stroke-linejoin="round" stroke-miterlimit="10" fill="#F34F46"/><text font-family="Arial,Arial_MSFontService,sans-serif" font-weight="400" font-size="24" transform="translate(361.913 570)">Overlay</text><rect x="346.5" y="461.5" width="230" height="67" stroke="#3465A4" stroke-linejoin="round" stroke-miterlimit="10" fill="#60CE82"/><text font-family="Arial,Arial_MSFontService,sans-serif" font-weight="400" font-size="24" transform="translate(424.84 503)">Inodes</text><rect x="470.5" y="538.5" width="106" height="48" stroke="#3465A4" stroke-linejoin="round" stroke-miterlimit="10" fill="#8C72CB"/><text font-family="Arial,Arial_MSFontService,sans-serif" font-weight="400" font-size="24" transform="translate(483.913 570)">Journal</text></g></svg>