<svg width="1280" height="720" xmlns="http://www.w3.org/2000/svg" xmlns:xlink="http://www.w3.org/1999/xlink" overflow="hidden"><defs><clipPath id="clip0"><path d="M0 0 1280 0 1280 720 0 720Z" fill-rule="evenodd" clip-rule="evenodd"/></clipPath></defs><g clip-path="url(#clip0)"><rect x="0" y="0" width="1280" height="720" fill="#E9EAED" fill-opacity="0"/><rect x="106.5" y="182.5" width="1142" height="413" stroke="#3465A4" stroke-linejoin="round" stroke-miterlimit="10" fill="#3B5998"/><text fill="#FFFFFF" font-family="Arial,Arial_MSFontService,sans-serif" font-weight="400" font-size="24" transform="translate(115.049 210)">Linux Kernel</text><rect x="346.5" y="163.5" width="172" height="39" stroke="#3465A4" stroke-linejoin="round" stroke-miterlimit="10" fill="#F34F46"/><text font-family="Arial,Arial_MSFontService,sans-serif" font-weight="400" font-size="24" transform="translate(368.073 191)">Mount Point</text><rect x="346.5" y="230.5" width="768" height="77" stroke="#3465A4" stroke-linejoin="round" stroke-miterlimit="10" fill="#60CE82"/><text font-family="Arial,Arial_MSFontService,sans-serif" font-weight="400" font-size="24" transform="translate(706.287 277)">VFS</text><rect x="125.5" y="346.5" width="173" height="76" stroke="#3465A4" stroke-linejoin="round" stroke-miterlimit="10" fill="#8C72CB"/><text font-family="Arial,Arial_MSFontService,sans-serif" font-weight="400" font-size="24" transform="translate(163.26 378)">Directory<tspan x="13.3067" y="29">Cache</tspan></text><rect x="125.5" y="230.5" width="173" height="77" stroke="#3465A4" stroke-linejoin="round" stroke-miterlimit="10" fill="#8C72CB"/><text font-family="Arial,Arial_MSFontService,sans-serif" font-weight="400" font-size="24" transform="translate(143.273 277)">Inode Cache</text><rect x="125.5" y="461.5" width="173" height="77" stroke="#3465A4" stroke-linejoin="round" stroke-miterlimit="10" fill="#8C72CB"/><text font-family="Arial,Arial_MSFontService,sans-serif" font-weight="400" font-size="24" transform="translate(145.267 508)">Page Cache</text><rect x="336.5" y="461.5" width="586" height="77" stroke="#3465A4" stroke-linejoin="round" stroke-miterlimit="10" fill="#8C72CB"/><text font-family="Arial,Arial_MSFontService,sans-serif" font-weight="400" font-size="24" transform="translate(559.097 508)">Buffer Cache</text><path d="M749.5 624.125C749.5 629.441 788.227 633.75 836 633.75 883.773 633.75 922.5 629.441 922.5 624.125L922.5 681.875C922.5 687.191 883.773 691.5 836 691.5 788.227 691.5 749.5 687.191 749.5 681.875Z" fill="#F34F46" fill-rule="evenodd"/><path d="M749.5 624.125C749.5 618.809 788.227 614.5 836 614.5 883.773 614.5 922.5 618.809 922.5 624.125 922.5 629.441 883.773 633.75 836 633.75 788.227 633.75 749.5 629.441 749.5 624.125Z" fill="#F89590" fill-rule="evenodd"/><path d="M922.5 624.125C922.5 629.441 883.773 633.75 836 633.75 788.227 633.75 749.5 629.441 749.5 624.125 749.5 618.809 788.227 614.5 836 614.5 883.773 614.5 922.5 618.809 922.5 624.125ZM922.5 624.125 922.5 681.875C922.5 687.191 883.773 691.5 836 691.5 788.227 691.5 749.5 687.191 749.5 681.875L749.5 624.125" stroke="#3465A4" stroke-linejoin="round" stroke-miterlimit="10" fill="none" fill-rule="evenodd"/><text font-family="Arial,Arial_MSFontService,sans-serif" font-weight="400" font-size="24" transform="translate(811.893 666)">Disk</text><rect x="346.5" y="346.5" width="172" height="76" stroke="#3465A4" stroke-linejoin="round" stroke-miterlimit="10" fill="#54C7EC"/><text font-family="Arial,Arial_MSFontService,sans-serif" font-weight="400" font-size="24" transform="translate(409.36 393)">ext4</text><rect x="547.5" y="346.5" width="173" height="76" stroke="#3465A4" stroke-linejoin="round" stroke-miterlimit="10" fill="#54C7EC"/><text font-family="Arial,Arial_MSFontService,sans-serif" font-weight="400" font-size="24" transform="translate(618.287 393)">xfs</text><rect x="749.5" y="346.5" width="173" height="76" stroke="#3465A4" stroke-linejoin="round" stroke-miterlimit="10" fill="#54C7EC"/><text font-family="Arial,Arial_MSFontService,sans-serif" font-weight="400" font-size="24" transform="translate(811.9 393)">btrfs</text><rect x="941.5" y="346.5" width="173" height="76" stroke="#3465A4" stroke-linejoin="round" stroke-miterlimit="10" fill="#FAA61A"/><text font-family="Arial,Arial_MSFontService,sans-serif" font-weight="400" font-size="24" transform="translate(995.227 393)">FUSE</text><rect x="547.5" y="163.5" width="173" height="39" stroke="#3465A4" stroke-linejoin="round" stroke-miterlimit="10" fill="#F34F46"/><text font-family="Arial,Arial_MSFontService,sans-serif" font-weight="400" font-size="24" transform="translate(569.673 191)">Mount Point</text><rect x="749.5" y="163.5" width="173" height="39" stroke="#3465A4" stroke-linejoin="round" stroke-miterlimit="10" fill="#F34F46"/><text font-family="Arial,Arial_MSFontService,sans-serif" font-weight="400" font-size="24" transform="translate(771.273 191)">Mount Point</text><rect x="941.5" y="163.5" width="173" height="39" stroke="#3465A4" stroke-linejoin="round" stroke-miterlimit="10" fill="#F34F46"/><text font-family="Arial,Arial_MSFontService,sans-serif" font-weight="400" font-size="24" transform="translate(963.273 191)">Mount Point</text><path d="M433 209.167 433 223.833 432 223.833 432 209.167ZM428.5 210.5 432.5 202.5 436.5 210.5ZM436.5 222.5 432.5 230.5 428.5 222.5Z"/><path d="M635 209.167 635 223.833 634 223.833 634 209.167ZM630.5 210.5 634.5 202.5 638.5 210.5ZM638.5 222.5 634.5 230.5 630.5 222.5Z"/><path d="M836 209.167 836 223.833 835 223.833 835 209.167ZM831.5 210.5 835.5 202.5 839.5 210.5ZM839.5 222.5 835.5 230.5 831.5 222.5Z"/><path d="M1028 209.167 1028 223.833 1027 223.833 1027 209.167ZM1023.5 210.5 1027.5 202.5 1031.5 210.5ZM1031.5 222.5 1027.5 230.5 1023.5 222.5Z"/><path d="M433 314.167 433 339.833 432 339.833 432 314.167ZM428.5 315.5 432.5 307.5 436.5 315.5ZM436.5 338.5 432.5 346.5 428.5 338.5Z"/><path d="M635 314.167 635 339.833 634 339.833 634 314.167ZM630.5 315.5 634.5 307.5 638.5 315.5ZM638.5 338.5 634.5 346.5 630.5 338.5Z"/><path d="M836 314.167 836 339.833 835 339.833 835 314.167ZM831.5 315.5 835.5 307.5 839.5 315.5ZM839.5 338.5 835.5 346.5 831.5 338.5Z"/><path d="M1028 314.167 1028 339.833 1027 339.833 1027 314.167ZM1023.5 315.5 1027.5 307.5 1031.5 315.5ZM1031.5 338.5 1027.5 346.5 1023.5 338.5Z"/><path d="M433 429.167 433 454.833 432 454.833 432 429.167ZM428.5 430.5 432.5 422.5 436.5 430.5ZM436.5 453.5 432.5 461.5 428.5 453.5Z"/><path d="M635 429.167 635 454.833 634 454.833 634 429.167ZM630.5 430.5 634.5 422.5 638.5 430.5ZM638.5 453.5 634.5 461.5 630.5 453.5Z"/><path d="M836 429.167 836 454.833 835 454.833 835 429.167ZM831.5 430.5 835.5 422.5 839.5 430.5ZM839.5 453.5 835.5 461.5 831.5 453.5Z"/><path d="M547.5 624.125C547.5 629.441 586.227 633.75 634 633.75 681.773 633.75 720.5 629.441 720.5 624.125L720.5 681.875C720.5 687.191 681.773 691.5 634 691.5 586.227 691.5 547.5 687.191 547.5 681.875Z" fill="#F34F46" fill-rule="evenodd"/><path d="M547.5 624.125C547.5 618.809 586.227 614.5 634 614.5 681.773 614.5 720.5 618.809 720.5 624.125 720.5 629.441 681.773 633.75 634 633.75 586.227 633.75 547.5 629.441 547.5 624.125Z" fill="#F89590" fill-rule="evenodd"/><path d="M720.5 624.125C720.5 629.441 681.773 633.75 634 633.75 586.227 633.75 547.5 629.441 547.5 624.125 547.5 618.809 586.227 614.5 634 614.5 681.773 614.5 720.5 618.809 720.5 624.125ZM720.5 624.125 720.5 681.875C720.5 687.191 681.773 691.5 634 691.5 586.227 691.5 547.5 687.191 547.5 681.875L547.5 624.125" stroke="#3465A4" stroke-linejoin="round" stroke-miterlimit="10" fill="none" fill-rule="evenodd"/><text font-family="Arial,Arial_MSFontService,sans-serif" font-weight="400" font-size="24" transform="translate(610.293 666)">Disk</text><path d="M346.5 624.125C346.5 629.441 385.004 633.75 432.5 633.75 479.997 633.75 518.5 629.441 518.5 624.125L518.5 681.875C518.5 687.191 479.997 691.5 432.5 691.5 385.004 691.5 346.5 687.191 346.5 681.875Z" fill="#F34F46" fill-rule="evenodd"/><path d="M346.5 624.125C346.5 618.809 385.004 614.5 432.5 614.5 479.997 614.5 518.5 618.809 518.5 624.125 518.5 629.441 479.997 633.75 432.5 633.75 385.004 633.75 346.5 629.441 346.5 624.125Z" fill="#F89590" fill-rule="evenodd"/><path d="M518.5 624.125C518.5 629.441 479.997 633.75 432.5 633.75 385.004 633.75 346.5 629.441 346.5 624.125 346.5 618.809 385.004 614.5 432.5 614.5 479.997 614.5 518.5 618.809 518.5 624.125ZM518.5 624.125 518.5 681.875C518.5 687.191 479.997 691.5 432.5 691.5 385.004 691.5 346.5 687.191 346.5 681.875L346.5 624.125" stroke="#3465A4" stroke-linejoin="round" stroke-miterlimit="10" fill="none" fill-rule="evenodd"/><text font-family="Arial,Arial_MSFontService,sans-serif" font-weight="400" font-size="24" transform="translate(408.693 666)">Disk</text><path d="M1120.52 381.601 1122.13 380.972 1129.33 377.243 1135.98 372.955 1142.19 368.045 1147.9 362.576 1153.13 356.669 1157.98 350.382 1162.33 343.666 1166.38 336.626 1169.99 329.34 1176.1 314.064 1180.96 298.414 1184.64 282.636 1187.32 267.165 1189.13 252.439 1189.81 245.513 1190.25 238.905 1190.63 232.658 1190.88 226.854 1191 221.551 1191.06 216.806 1191 212.695 1190.96 209.169 1191.96 209.158 1192 212.68 1192.06 216.819 1192 221.574 1191.87 226.897 1191.62 232.717 1191.25 238.97 1190.81 245.612 1190.12 252.561 1188.31 267.335 1185.61 282.864 1181.91 298.711 1177.03 314.436 1170.89 329.785 1167.25 337.124 1163.17 344.209 1158.77 350.993 1153.87 357.331 1148.6 363.299 1142.81 368.83 1136.52 373.795 1129.79 378.132 1122.49 381.903 1120.89 382.532ZM1123.41 385.304 1114.5 384.5 1120.49 377.856ZM1187.5 210.621 1191.25 202.5 1195.5 210.371Z"/><rect x="1133.5" y="163.5" width="105" height="39" stroke="#3465A4" stroke-linejoin="round" stroke-miterlimit="10" fill="#FAA61A"/><text font-family="Arial,Arial_MSFontService,sans-serif" font-weight="400" font-size="24" transform="translate(1136.99 191)">/dev/fuse</text><path d="M1127.23 38.5001C1120.86 38.5001 1114.5 44.9009 1114.5 51.3018L1114.5 102.623C1114.5 109.023 1120.86 115.462 1127.23 115.462L1235.7 115.462C1242.06 115.462 1248.46 109.023 1248.46 102.623L1248.46 51.3018C1248.46 44.9009 1242.06 38.5001 1235.7 38.5001L1127.23 38.5001" stroke="#3465A4" stroke-linejoin="round" stroke-miterlimit="10" fill="#5890F0" fill-rule="evenodd"/><text font-family="Arial,Arial_MSFontService,sans-serif" font-weight="400" font-size="24" transform="translate(1148.85 66)">FUSE<tspan x="-13.3201" y="29">Daemon</tspan></text><path d="M1191 122.167 1191 156.833 1190 156.833 1190 122.167ZM1186.5 123.5 1190.5 115.5 1194.5 123.5ZM1194.5 155.5 1190.5 163.5 1186.5 155.5Z"/><path d="M433 545.167 433 607.833 432 607.833 432 545.167ZM428.5 546.5 432.5 538.5 436.5 546.5ZM436.5 606.5 432.5 614.5 428.5 606.5Z"/><path d="M635 545.167 635 607.833 634 607.833 634 545.167ZM630.5 546.5 634.5 538.5 638.5 546.5ZM638.5 606.5 634.5 614.5 630.5 606.5Z"/><path d="M836 545.167 836 607.833 835 607.833 835 545.167ZM831.5 546.5 835.5 538.5 839.5 546.5ZM839.5 606.5 835.5 614.5 831.5 606.5Z"/><path d="M2.10198 6.34638 46.8682 185.411 45.8981 185.654 1.13184 6.58892ZM-1.94028 8.73128 0 0 5.82085 6.791ZM49.9403 183.269 48 192 42.1791 185.209Z" transform="matrix(-1 -8.74228e-08 -8.74228e-08 1 346.5 298.5)"/><path d="M3.02937 5.95977 45.8935 108.655 44.9706 109.04 2.10653 6.34495ZM-0.609872 8.92345 0 0 6.77284 5.84197ZM48.6099 106.077 48 115 41.2272 109.158Z" transform="matrix(-1 -8.74228e-08 -8.74228e-08 1 346.5 269.5)"/><path d="M6.66665-0.499985 41.3333-0.49991 41.3333 0.50009 6.66665 0.500015ZM7.99999 4.00002 0 0 8.00001-3.99998ZM40-3.99991 48 0.000104987 40 4.00009Z" transform="matrix(-1 -8.74228e-08 -8.74228e-08 1 346.5 259.5)"/></g></svg>