<svg width="1280" height="720" xmlns="http://www.w3.org/2000/svg" xmlns:xlink="http://www.w3.org/1999/xlink" overflow="hidden"><defs><clipPath id="clip0"><path d="M0 0 1280 0 1280 720 0 720Z" fill-rule="evenodd" clip-rule="evenodd"/></clipPath><clipPath id="clip1"><path d="M81 157 230 157 230 360 81 360Z" fill-rule="evenodd" clip-rule="evenodd"/></clipPath><clipPath id="clip2"><path d="M229 157 346 157 346 360 229 360Z" fill-rule="evenodd" clip-rule="evenodd"/></clipPath><clipPath id="clip3"><path d="M81 203 230 203 230 405 81 405Z" fill-rule="evenodd" clip-rule="evenodd"/></clipPath><clipPath id="clip4"><path d="M81 248 230 248 230 451 81 451Z" fill-rule="evenodd" clip-rule="evenodd"/></clipPath><clipPath id="clip5"><path d="M81 294 230 294 230 496 81 496Z" fill-rule="evenodd" clip-rule="evenodd"/></clipPath><clipPath id="clip6"><path d="M81 339 230 339 230 542 81 542Z" fill-rule="evenodd" clip-rule="evenodd"/></clipPath><clipPath id="clip7"><path d="M81 385 230 385 230 588 81 588Z" fill-rule="evenodd" clip-rule="evenodd"/></clipPath><clipPath id="clip8"><path d="M81 431 230 431 230 633 81 633Z" fill-rule="evenodd" clip-rule="evenodd"/></clipPath></defs><g clip-path="url(#clip0)"><rect x="0" y="0" width="1280" height="720" fill="#E9EAED" fill-opacity="0"/><rect x="733.5" y="259.5" width="125" height="58" stroke="#3465A4" stroke-linejoin="round" stroke-miterlimit="10" fill="#54C7EC"/><text font-family="Arial,Arial_MSFontService,sans-serif" font-weight="400" font-size="24" transform="translate(745.939 297)">FileInode</text><rect x="816.5" y="125.5" width="125" height="57" stroke="#3465A4" stroke-linejoin="round" stroke-miterlimit="10" fill="#60CE82"/><text font-family="Arial,Arial_MSFontService,sans-serif" font-weight="400" font-size="24" transform="translate(824.24 162)">TreeInode</text><rect x="566.5" y="262.5" width="125" height="58" stroke="#3465A4" stroke-linejoin="round" stroke-miterlimit="10" fill="#60CE82"/><text font-family="Arial,Arial_MSFontService,sans-serif" font-weight="400" font-size="24" transform="translate(574.64 300)">TreeInode</text><rect x="899.5" y="259.5" width="125" height="58" stroke="#3465A4" stroke-linejoin="round" stroke-miterlimit="10" fill="#54C7EC"/><text font-family="Arial,Arial_MSFontService,sans-serif" font-weight="400" font-size="24" transform="translate(912.39 297)">FileInode</text><rect x="1066.5" y="259.5" width="124" height="58" stroke="#3465A4" stroke-linejoin="round" stroke-miterlimit="10" fill="#60CE82"/><text font-family="Arial,Arial_MSFontService,sans-serif" font-weight="400" font-size="24" transform="translate(1073.84 297)">TreeInode</text><rect x="682.5" y="538.5" width="124" height="57" stroke="#3465A4" stroke-linejoin="round" stroke-miterlimit="10" fill="#60CE82"/><text font-family="Arial,Arial_MSFontService,sans-serif" font-weight="400" font-size="24" transform="translate(689.84 575)">TreeInode</text><rect x="413.5" y="400.5" width="125" height="58" stroke="#3465A4" stroke-linejoin="round" stroke-miterlimit="10" fill="#54C7EC"/><text font-family="Arial,Arial_MSFontService,sans-serif" font-weight="400" font-size="24" transform="translate(425.927 437)">FileInode</text><rect x="720.5" y="399.5" width="125" height="58" stroke="#3465A4" stroke-linejoin="round" stroke-miterlimit="10" fill="#54C7EC"/><text font-family="Arial,Arial_MSFontService,sans-serif" font-weight="400" font-size="24" transform="translate(733.127 437)">FileInode</text><rect x="566.5" y="399.5" width="125" height="58" stroke="#3465A4" stroke-linejoin="round" stroke-miterlimit="10" fill="#60CE82"/><text font-family="Arial,Arial_MSFontService,sans-serif" font-weight="400" font-size="24" transform="translate(574.678 437)">TreeInode</text><rect x="403.5" y="538.5" width="125" height="57" stroke="#3465A4" stroke-linejoin="round" stroke-miterlimit="10" fill="#54C7EC"/><text font-family="Arial,Arial_MSFontService,sans-serif" font-weight="400" font-size="24" transform="translate(416.327 575)">FileInode</text><path d="M0 0 249.638 80.0504" stroke="#000000" stroke-linejoin="round" stroke-miterlimit="10" fill="none" fill-rule="evenodd" transform="matrix(-1 -8.74228e-08 -8.74228e-08 1 879.138 182.5)"/><path d="M0 0 83.2252 76.8378" stroke="#000000" stroke-linejoin="round" stroke-miterlimit="10" fill="none" fill-rule="evenodd" transform="matrix(-1 -8.74228e-08 -8.74228e-08 1 878.725 182.5)"/><path d="M878.5 182.5 961.801 259.338" stroke="#000000" stroke-linejoin="round" stroke-miterlimit="10" fill="none" fill-rule="evenodd"/><path d="M878.5 182.5 1128.14 259.338" stroke="#000000" stroke-linejoin="round" stroke-miterlimit="10" fill="none" fill-rule="evenodd"/><path d="M0 0 103.975 79.4457" stroke="#000000" stroke-linejoin="round" stroke-miterlimit="10" fill="none" fill-rule="evenodd" transform="matrix(-1 -8.74228e-08 -8.74228e-08 1 1128.47 317.5)"/><path d="M1128.5 317.5 1128.54 394.338" stroke="#000000" stroke-linejoin="round" stroke-miterlimit="10" fill="none" fill-rule="evenodd"/><path d="M1128.5 317.5 1232.21 395.661" stroke="#000000" stroke-linejoin="round" stroke-miterlimit="10" fill="none" fill-rule="evenodd"/><path d="M629.5 457.5 862.735 543.787" stroke="#000000" stroke-linejoin="round" stroke-miterlimit="10" fill="none" fill-rule="evenodd"/><path d="M629.5 457.5 744.7 538.344" stroke="#000000" stroke-linejoin="round" stroke-miterlimit="10" fill="none" fill-rule="evenodd"/><path d="M0 0 163.276 80.8441" stroke="#000000" stroke-linejoin="round" stroke-miterlimit="10" fill="none" fill-rule="evenodd" transform="matrix(-1 -8.74228e-08 -8.74228e-08 1 629.776 457.5)"/><path d="M0 0 26.3433 81.222" stroke="#000000" stroke-linejoin="round" stroke-miterlimit="10" fill="none" fill-rule="evenodd" transform="matrix(-1 -8.74228e-08 -8.74228e-08 1 629.843 457.5)"/><path d="M0 0 153.638 80.0126" stroke="#000000" stroke-linejoin="round" stroke-miterlimit="10" fill="none" fill-rule="evenodd" transform="matrix(-1 -8.74228e-08 -8.74228e-08 1 629.138 320.5)"/><path d="M629.5 320.5 629.576 399.719" stroke="#000000" stroke-linejoin="round" stroke-miterlimit="10" fill="none" fill-rule="evenodd"/><path d="M629.5 320.5 783.138 399.719" stroke="#000000" stroke-linejoin="round" stroke-miterlimit="10" fill="none" fill-rule="evenodd"/><rect x="58.5001" y="163.5" width="307" height="432" stroke="#3465A4" stroke-linejoin="round" stroke-miterlimit="10" fill="#8C72CB"/><text font-family="Arial,Arial_MSFontService,sans-serif" font-weight="400" font-size="24" transform="translate(157.92 191)">InodeMap</text><path d="M81.0331 239.184 229.818 239.184 229.818 284.765 81.0331 284.765Z" fill="#B3B3B3" fill-rule="evenodd"/><path d="M229.818 239.184 345.6 239.184 345.6 284.765 229.818 284.765Z" fill="#B3B3B3" fill-rule="evenodd"/><path d="M81.0331 284.765 229.818 284.765 229.818 330.346 81.0331 330.346Z" fill="#CCCCCC" fill-rule="evenodd"/><path d="M229.818 284.765 345.6 284.765 345.6 330.346 229.818 330.346Z" fill="#CCCCCC" fill-rule="evenodd"/><path d="M81.0331 330.346 229.818 330.346 229.818 375.927 81.0331 375.927Z" fill="#E6E6E6" fill-rule="evenodd"/><path d="M229.818 330.346 345.6 330.346 345.6 375.927 229.818 375.927Z" fill="#E6E6E6" fill-rule="evenodd"/><path d="M81.0331 375.927 229.818 375.927 229.818 421.508 81.0331 421.508Z" fill="#CCCCCC" fill-rule="evenodd"/><path d="M229.818 375.927 345.6 375.927 345.6 421.508 229.818 421.508Z" fill="#CCCCCC" fill-rule="evenodd"/><path d="M81.0331 421.508 229.818 421.508 229.818 467.089 81.0331 467.089Z" fill="#E6E6E6" fill-rule="evenodd"/><path d="M229.818 421.508 345.6 421.508 345.6 467.089 229.818 467.089Z" fill="#E6E6E6" fill-rule="evenodd"/><path d="M81.0331 467.089 229.818 467.089 229.818 512.708 81.0331 512.708Z" fill="#CCCCCC" fill-rule="evenodd"/><path d="M229.818 467.089 345.6 467.089 345.6 512.708 229.818 512.708Z" fill="#CCCCCC" fill-rule="evenodd"/><path d="M81.0331 512.708 229.818 512.708 229.818 558.327 81.0331 558.327Z" fill="#E6E6E6" fill-rule="evenodd"/><path d="M229.818 512.708 345.6 512.708 345.6 558.327 229.818 558.327Z" fill="#E6E6E6" fill-rule="evenodd"/><path d="M229.818 239.146 229.818 512.708" stroke="#FFFFFF" stroke-width="0.0755906" stroke-linejoin="round" stroke-miterlimit="10" fill="none" fill-rule="evenodd"/><path d="M229.818 512.708 229.818 558.365" stroke="#FFFFFF" stroke-width="0.0755906" stroke-linejoin="round" stroke-miterlimit="10" fill="none" fill-rule="evenodd"/><path d="M80.9953 284.765 345.638 284.765" stroke="#FFFFFF" stroke-width="0.0755906" stroke-linejoin="round" stroke-miterlimit="10" fill="none" fill-rule="evenodd"/><path d="M80.9953 330.346 345.638 330.346" stroke="#FFFFFF" stroke-width="0.0755906" stroke-linejoin="round" stroke-miterlimit="10" fill="none" fill-rule="evenodd"/><path d="M80.9953 375.927 345.638 375.927" stroke="#FFFFFF" stroke-width="0.0755906" stroke-linejoin="round" stroke-miterlimit="10" fill="none" fill-rule="evenodd"/><path d="M80.9953 421.508 345.638 421.508" stroke="#FFFFFF" stroke-width="0.0755906" stroke-linejoin="round" stroke-miterlimit="10" fill="none" fill-rule="evenodd"/><path d="M80.9953 467.089 345.638 467.089" stroke="#FFFFFF" stroke-width="0.0755906" stroke-linejoin="round" stroke-miterlimit="10" fill="none" fill-rule="evenodd"/><path d="M80.9953 512.708 345.638 512.708" stroke="#FFFFFF" stroke-width="0.0755906" stroke-linejoin="round" stroke-miterlimit="10" fill="none" fill-rule="evenodd"/><path d="M81.0331 239.146 81.0331 558.365" stroke="#FFFFFF" stroke-width="0.0755906" stroke-linejoin="round" stroke-miterlimit="10" fill="none" fill-rule="evenodd"/><path d="M345.6 239.146 345.6 558.365" stroke="#FFFFFF" stroke-width="0.0755906" stroke-linejoin="round" stroke-miterlimit="10" fill="none" fill-rule="evenodd"/><path d="M80.9953 239.184 345.638 239.184" stroke="#FFFFFF" stroke-width="0.0755906" stroke-linejoin="round" stroke-miterlimit="10" fill="none" fill-rule="evenodd"/><path d="M80.9953 558.327 345.638 558.327" stroke="#FFFFFF" stroke-width="0.0755906" stroke-linejoin="round" stroke-miterlimit="10" fill="none" fill-rule="evenodd"/><g clip-path="url(#clip1)"><text font-family="Arial,Arial_MSFontService,sans-serif" font-weight="700" font-size="24" transform="translate(90.4819 267)">Inode #</text></g><g clip-path="url(#clip2)"><text font-family="Arial,Arial_MSFontService,sans-serif" font-weight="700" font-size="24" transform="translate(239.267 267)">Pointer</text></g><g clip-path="url(#clip3)"><text font-family="Arial,Arial_MSFontService,sans-serif" font-weight="400" font-size="24" transform="translate(90.4819 313)">1</text></g><g clip-path="url(#clip4)"><text font-family="Arial,Arial_MSFontService,sans-serif" font-weight="400" font-size="24" transform="translate(90.4819 358)">22</text></g><g clip-path="url(#clip5)"><text font-family="Arial,Arial_MSFontService,sans-serif" font-weight="400" font-size="24" transform="translate(90.4819 404)">7359</text></g><g clip-path="url(#clip6)"><text font-family="Arial,Arial_MSFontService,sans-serif" font-weight="400" font-size="24" transform="translate(90.4819 449)">139</text></g><g clip-path="url(#clip7)"><text font-family="Arial,Arial_MSFontService,sans-serif" font-weight="400" font-size="24" transform="translate(90.4819 495)">2970</text></g><g clip-path="url(#clip8)"><text font-family="Arial,Arial_MSFontService,sans-serif" font-weight="400" font-size="24" transform="translate(90.4819 541)">…</text></g><path d="M307.304 298.04 328.179 289.165 349.438 280.599 392.636 264.282 436.336 249.09 480.034 235.024 523.294 222.084 544.55 216.019 565.493 210.268 586.058 204.767 606.125 199.578 625.69 194.64 644.694 190.014 663.072 185.639 680.7 181.575 697.577 177.762 713.581 174.262 728.708 171.011 742.836 168.073 755.962 165.385 767.902 163.01 778.779 160.884 788.344 159.071 796.658 157.509 803.599 156.258 809.841 155.136 810.018 156.12 803.776 157.242 796.842 158.491 788.531 160.054 778.971 161.866 768.098 163.99 756.163 166.365 743.039 169.052 728.918 171.989 713.794 175.238 697.798 178.738 680.925 182.55 663.303 186.611 644.931 190.986 625.935 195.61 606.375 200.547 586.317 205.733 565.757 211.232 544.825 216.981 523.581 223.042 480.341 235.976 436.664 250.035 392.989 265.218 349.812 281.526 328.571 290.085 307.696 298.96ZM807.938 151.912 816.5 154.5 809.292 159.796Z"/><path d="M298.358 346.021 323.42 338.583 348.363 331.457 372.867 324.706 396.809 318.329 419.937 312.329 442.064 306.703 463.006 301.577 473.007 299.139 482.633 296.826 491.885 294.638 500.639 292.638 509.012 290.7 516.951 288.888 524.326 287.2 531.202 285.637 537.578 284.2 543.395 282.949 548.582 281.824 553.143 280.824 557.079 279.949 559.872 279.369 560.075 280.348 557.296 280.926 553.357 281.801 548.793 282.801 543.605 283.926 537.797 285.175 531.423 286.613 524.549 288.175 517.174 289.863 509.238 291.675 500.861 293.612 492.115 295.612 482.867 297.799 473.243 300.111 463.244 302.548 442.311 307.672 420.188 313.297 397.066 319.296 373.133 325.67 348.637 332.418 323.705 339.542 298.642 346.979ZM557.853 276.214 566.5 278.5 559.483 284.046Z"/><path d="M298.375 383.828 319.875 378.266 341.202 373.45 362.345 369.446 383.171 366.131 403.687 363.504 423.888 361.503 443.715 360.126 463.165 359.251 482.242 358.938 500.816 359.063 518.891 359.625 536.464 360.563 553.538 361.877 569.987 363.502 585.809 365.379 601.007 367.505 615.514 369.756 629.275 372.195 642.346 374.759 654.667 377.386 666.174 380.013 676.807 382.64 686.626 385.204 695.507 387.643 703.517 390.021 710.52 392.147 716.529 394.087 721.53 395.712 724.407 396.738 724.072 397.68 721.22 396.663 716.221 395.038 710.23 393.104 703.233 390.979 695.243 388.607 686.374 386.171 676.568 383.61 665.951 380.988 654.458 378.364 642.154 375.741 629.1 373.18 615.361 370.744 600.868 368.495 585.691 366.372 569.888 364.498 553.462 362.874 536.411 361.562 518.859 360.625 500.809 360.063 482.258 359.938 463.21 360.25 443.785 361.124 423.987 362.498 403.814 364.496 383.329 367.119 362.531 370.429 341.423 374.425 320.125 379.234 298.625 384.797ZM724.362 392.994 730.5 399.5 721.613 400.507Z"/><path d="M302.672 437.031 333.922 448.468 365.973 459.339 398.462 469.523 431.017 479.146 463.259 488.143 494.753 496.454 510.06 500.328 525.121 504.077 539.741 507.576 553.928 510.951 567.675 514.138 580.861 517.138 593.484 519.95 605.479 522.511 616.793 524.949 627.416 527.198 637.225 529.198 646.224 531.01 654.348 532.635 661.536 534.072 667.781 535.259 672.97 536.259 676.03 536.816 675.851 537.799 672.78 537.241 667.594 536.241 661.339 535.053 654.152 533.615 646.026 531.99 637.025 530.177 627.209 528.177 616.582 525.926 605.271 523.489 593.266 520.926 580.639 518.113 567.45 515.112 553.697 511.924 539.509 508.549 524.879 505.048 509.815 501.297 494.497 497.421 462.991 489.107 430.733 480.105 398.163 470.477 365.652 460.286 333.578 449.407 302.328 437.97ZM675.345 533.133 682.5 538.5 673.914 541.004Z"/><path d="M302.918 480.226 309.606 490.413 316.891 499.564 324.673 507.654 332.83 514.812 341.176 521.101 349.522 526.518 357.808 531.19 365.844 535.113 373.507 538.352 380.61 540.968 387.028 543.024 392.578 544.645 397.079 545.687 396.854 546.661 392.297 545.605 386.723 543.976 380.265 541.907 373.118 539.273 365.406 536.012 357.317 532.061 348.978 527.357 340.574 521.899 332.17 515.563 323.952 508.347 316.109 500.186 308.77 490.962 302.082 480.774ZM396.456 541.989 403.5 547.5 394.864 549.829Z"/></g></svg>