<svg width="1280" height="720" xmlns="http://www.w3.org/2000/svg" xmlns:xlink="http://www.w3.org/1999/xlink" overflow="hidden"><defs><clipPath id="clip0"><path d="M0 0 1280 0 1280 720 0 720Z" fill-rule="evenodd" clip-rule="evenodd"/></clipPath></defs><g clip-path="url(#clip0)"><rect x="0" y="0" width="1280" height="720" fill="#E9EAED" fill-opacity="0"/><rect x="163.5" y="134.5" width="327" height="58" stroke="#3465A4" stroke-linejoin="round" stroke-miterlimit="10" fill="#54C7EC"/><text font-family="Arial,Arial_MSFontService,sans-serif" font-weight="400" font-size="24" transform="translate(277.127 172)">FileInode</text><rect x="163.5" y="192.5" width="327" height="259" stroke="#3465A4" stroke-linejoin="round" stroke-miterlimit="10" fill="#54C7EC"/><text font-family="Arial,Arial_MSFontService,sans-serif" font-weight="400" font-size="24" transform="translate(172.649 220)">Inode Number: 38271<tspan x="0" y="28">Object ID: </tspan><tspan font-family="Calibri,Calibri_MSFontService,sans-serif" x="113.187" y="28">204f2d5913e5...</tspan></text><rect x="710.5" y="134.5" width="308" height="240" stroke="#3465A4" stroke-linejoin="round" stroke-miterlimit="10" fill="#8C72CB"/><text font-family="Arial,Arial_MSFontService,sans-serif" font-weight="400" font-size="24" transform="translate(800.74 162)">ObjectStore</text><rect x="720.5" y="278.5" width="288" height="87" stroke="#3465A4" stroke-linejoin="round" stroke-miterlimit="10" fill="#60CE82"/><text font-family="Arial,Arial_MSFontService,sans-serif" font-weight="400" font-size="24" transform="translate(792.747 330)">BackingStore</text><rect x="720.5" y="182.5" width="288" height="87" stroke="#3465A4" stroke-linejoin="round" stroke-miterlimit="10" fill="#3B5998"/><text fill="#FFFFFF" font-family="Arial,Arial_MSFontService,sans-serif" font-weight="400" font-size="24" transform="translate(806.733 234)">LocalStore</text><rect x="710.5" y="403.5" width="308" height="250" stroke="#3465A4" stroke-linejoin="round" stroke-miterlimit="10" fill="#F34F46"/><text fill="#FFFFFF" font-family="Arial,Arial_MSFontService,sans-serif" font-weight="400" font-size="24" transform="translate(822.713 431)">Overlay</text><path d="M0.0411641-0.498303 223.396 17.9528 223.314 18.9494-0.0411641 0.498303ZM222.356 14.355 230 19 221.698 22.3278Z" transform="matrix(1 0 0 -1 480.5 240.5)"/></g></svg>