<svg width="1280" height="720" xmlns="http://www.w3.org/2000/svg" xmlns:xlink="http://www.w3.org/1999/xlink" overflow="hidden"><defs><clipPath id="clip0"><path d="M0 0 1280 0 1280 720 0 720Z" fill-rule="evenodd" clip-rule="evenodd"/></clipPath><clipPath id="clip1"><path d="M99 105 345 105 345 307 99 307Z" fill-rule="evenodd" clip-rule="evenodd"/></clipPath><clipPath id="clip2"><path d="M344 105 428 105 428 307 344 307Z" fill-rule="evenodd" clip-rule="evenodd"/></clipPath><clipPath id="clip3"><path d="M427 105 526 105 526 307 427 307Z" fill-rule="evenodd" clip-rule="evenodd"/></clipPath><clipPath id="clip4"><path d="M730 105 935 105 935 307 730 307Z" fill-rule="evenodd" clip-rule="evenodd"/></clipPath><clipPath id="clip5"><path d="M934 105 1139 105 1139 307 934 307Z" fill-rule="evenodd" clip-rule="evenodd"/></clipPath><clipPath id="clip6"><path d="M99 161 345 161 345 364 99 364Z" fill-rule="evenodd" clip-rule="evenodd"/></clipPath><clipPath id="clip7"><path d="M344 161 428 161 428 364 344 364Z" fill-rule="evenodd" clip-rule="evenodd"/></clipPath><clipPath id="clip8"><path d="M427 161 526 161 526 364 427 364Z" fill-rule="evenodd" clip-rule="evenodd"/></clipPath><clipPath id="clip9"><path d="M525 161 731 161 731 364 525 364Z" fill-rule="evenodd" clip-rule="evenodd"/></clipPath><clipPath id="clip10"><path d="M730 161 935 161 935 364 730 364Z" fill-rule="evenodd" clip-rule="evenodd"/></clipPath><clipPath id="clip11"><path d="M934 161 1139 161 1139 364 934 364Z" fill-rule="evenodd" clip-rule="evenodd"/></clipPath><clipPath id="clip12"><path d="M99 217 345 217 345 420 99 420Z" fill-rule="evenodd" clip-rule="evenodd"/></clipPath><clipPath id="clip13"><path d="M344 217 428 217 428 420 344 420Z" fill-rule="evenodd" clip-rule="evenodd"/></clipPath><clipPath id="clip14"><path d="M427 217 526 217 526 420 427 420Z" fill-rule="evenodd" clip-rule="evenodd"/></clipPath><clipPath id="clip15"><path d="M525 217 731 217 731 420 525 420Z" fill-rule="evenodd" clip-rule="evenodd"/></clipPath><clipPath id="clip16"><path d="M730 217 935 217 935 420 730 420Z" fill-rule="evenodd" clip-rule="evenodd"/></clipPath><clipPath id="clip17"><path d="M934 217 1139 217 1139 420 934 420Z" fill-rule="evenodd" clip-rule="evenodd"/></clipPath><clipPath id="clip18"><path d="M99 274 345 274 345 476 99 476Z" fill-rule="evenodd" clip-rule="evenodd"/></clipPath><clipPath id="clip19"><path d="M344 274 428 274 428 476 344 476Z" fill-rule="evenodd" clip-rule="evenodd"/></clipPath><clipPath id="clip20"><path d="M427 274 526 274 526 476 427 476Z" fill-rule="evenodd" clip-rule="evenodd"/></clipPath><clipPath id="clip21"><path d="M525 274 731 274 731 476 525 476Z" fill-rule="evenodd" clip-rule="evenodd"/></clipPath><clipPath id="clip22"><path d="M730 274 935 274 935 476 730 476Z" fill-rule="evenodd" clip-rule="evenodd"/></clipPath><clipPath id="clip23"><path d="M99 330 345 330 345 533 99 533Z" fill-rule="evenodd" clip-rule="evenodd"/></clipPath><clipPath id="clip24"><path d="M344 330 428 330 428 533 344 533Z" fill-rule="evenodd" clip-rule="evenodd"/></clipPath><clipPath id="clip25"><path d="M427 330 526 330 526 533 427 533Z" fill-rule="evenodd" clip-rule="evenodd"/></clipPath><clipPath id="clip26"><path d="M525 330 731 330 731 533 525 533Z" fill-rule="evenodd" clip-rule="evenodd"/></clipPath><clipPath id="clip27"><path d="M730 330 935 330 935 533 730 533Z" fill-rule="evenodd" clip-rule="evenodd"/></clipPath><clipPath id="clip28"><path d="M934 330 1139 330 1139 533 934 533Z" fill-rule="evenodd" clip-rule="evenodd"/></clipPath><clipPath id="clip29"><path d="M99 386 345 386 345 589 99 589Z" fill-rule="evenodd" clip-rule="evenodd"/></clipPath><clipPath id="clip30"><path d="M344 386 428 386 428 589 344 589Z" fill-rule="evenodd" clip-rule="evenodd"/></clipPath><clipPath id="clip31"><path d="M427 386 526 386 526 589 427 589Z" fill-rule="evenodd" clip-rule="evenodd"/></clipPath><clipPath id="clip32"><path d="M525 386 731 386 731 589 525 589Z" fill-rule="evenodd" clip-rule="evenodd"/></clipPath><clipPath id="clip33"><path d="M730 386 935 386 935 589 730 589Z" fill-rule="evenodd" clip-rule="evenodd"/></clipPath></defs><g clip-path="url(#clip0)"><rect x="0" y="0" width="1280" height="720" fill="#E9EAED" fill-opacity="0"/><path d="M99.9685 186.935 344.92 186.935 344.92 243.213 99.9685 243.213Z" fill="#5E8AC7" fill-rule="evenodd"/><path d="M344.92 186.935 427.2 186.935 427.2 243.213 344.92 243.213Z" fill="#5E8AC7" fill-rule="evenodd"/><path d="M427.2 186.935 525.959 186.935 525.959 243.213 427.2 243.213Z" fill="#5E8AC7" fill-rule="evenodd"/><path d="M525.959 186.935 730.129 186.935 730.129 243.213 525.959 243.213Z" fill="#5E8AC7" fill-rule="evenodd"/><path d="M730.129 186.935 934.299 186.935 934.299 243.213 730.129 243.213Z" fill="#5E8AC7" fill-rule="evenodd"/><path d="M934.299 186.935 1138.47 186.935 1138.47 243.213 934.299 243.213Z" fill="#5E8AC7" fill-rule="evenodd"/><path d="M99.9685 243.213 344.92 243.213 344.92 299.49 99.9685 299.49Z" fill="#ADC5E7" fill-rule="evenodd"/><path d="M344.92 243.213 427.2 243.213 427.2 299.49 344.92 299.49Z" fill="#ADC5E7" fill-rule="evenodd"/><path d="M427.2 243.213 525.959 243.213 525.959 299.49 427.2 299.49Z" fill="#ADC5E7" fill-rule="evenodd"/><path d="M525.959 243.213 730.129 243.213 730.129 299.49 525.959 299.49Z" fill="#ADC5E7" fill-rule="evenodd"/><path d="M730.129 243.213 934.299 243.213 934.299 299.49 730.129 299.49Z" fill="#ADC5E7" fill-rule="evenodd"/><path d="M934.299 243.213 1138.47 243.213 1138.47 299.49 934.299 299.49Z" fill="#ADC5E7" fill-rule="evenodd"/><path d="M99.9685 299.49 344.92 299.49 344.92 355.767 99.9685 355.767Z" fill="#ADC5E7" fill-rule="evenodd"/><path d="M344.92 299.49 427.2 299.49 427.2 355.767 344.92 355.767Z" fill="#ADC5E7" fill-rule="evenodd"/><path d="M427.2 299.49 525.959 299.49 525.959 355.767 427.2 355.767Z" fill="#ADC5E7" fill-rule="evenodd"/><path d="M525.959 299.49 730.129 299.49 730.129 355.767 525.959 355.767Z" fill="#ADC5E7" fill-rule="evenodd"/><path d="M730.129 299.49 934.299 299.49 934.299 355.767 730.129 355.767Z" fill="#ADC5E7" fill-rule="evenodd"/><path d="M934.299 299.49 1138.47 299.49 1138.47 355.767 934.299 355.767Z" fill="#ADC5E7" fill-rule="evenodd"/><path d="M99.9685 355.767 344.92 355.767 344.92 412.044 99.9685 412.044Z" fill="#ADC5E7" fill-rule="evenodd"/><path d="M344.92 355.767 427.2 355.767 427.2 412.044 344.92 412.044Z" fill="#ADC5E7" fill-rule="evenodd"/><path d="M427.2 355.767 525.959 355.767 525.959 412.044 427.2 412.044Z" fill="#ADC5E7" fill-rule="evenodd"/><path d="M525.959 355.767 730.129 355.767 730.129 412.044 525.959 412.044Z" fill="#ADC5E7" fill-rule="evenodd"/><path d="M730.129 355.767 934.299 355.767 934.299 412.044 730.129 412.044Z" fill="#ADC5E7" fill-rule="evenodd"/><path d="M934.299 355.767 1138.47 355.767 1138.47 412.044 934.299 412.044Z" fill="#ADC5E7" fill-rule="evenodd"/><path d="M99.9685 412.044 344.92 412.044 344.92 468.208 99.9685 468.208Z" fill="#ADC5E7" fill-rule="evenodd"/><path d="M344.92 412.044 427.2 412.044 427.2 468.208 344.92 468.208Z" fill="#ADC5E7" fill-rule="evenodd"/><path d="M427.2 412.044 525.959 412.044 525.959 468.208 427.2 468.208Z" fill="#ADC5E7" fill-rule="evenodd"/><path d="M525.959 412.044 730.129 412.044 730.129 468.208 525.959 468.208Z" fill="#ADC5E7" fill-rule="evenodd"/><path d="M730.129 412.044 934.299 412.044 934.299 468.208 730.129 468.208Z" fill="#ADC5E7" fill-rule="evenodd"/><path d="M934.299 412.044 1138.47 412.044 1138.47 468.208 934.299 468.208Z" fill="#ADC5E7" fill-rule="evenodd"/><path d="M99.9685 468.208 344.92 468.208 344.92 524.372 99.9685 524.372Z" fill="#ADC5E7" fill-rule="evenodd"/><path d="M344.92 468.208 427.2 468.208 427.2 524.372 344.92 524.372Z" fill="#ADC5E7" fill-rule="evenodd"/><path d="M427.2 468.208 525.959 468.208 525.959 524.372 427.2 524.372Z" fill="#ADC5E7" fill-rule="evenodd"/><path d="M525.959 468.208 730.129 468.208 730.129 524.372 525.959 524.372Z" fill="#ADC5E7" fill-rule="evenodd"/><path d="M730.129 468.208 934.299 468.208 934.299 524.372 730.129 524.372Z" fill="#ADC5E7" fill-rule="evenodd"/><path d="M934.299 468.208 1138.47 468.208 1138.47 524.372 934.299 524.372Z" fill="#ADC5E7" fill-rule="evenodd"/><path d="M344.92 186.898 344.92 524.409" stroke="#FFFFFF" stroke-width="0.0755906" stroke-linejoin="round" stroke-miterlimit="10" fill="none" fill-rule="evenodd"/><path d="M427.2 186.898 427.2 524.409" stroke="#FFFFFF" stroke-width="0.0755906" stroke-linejoin="round" stroke-miterlimit="10" fill="none" fill-rule="evenodd"/><path d="M525.959 186.898 525.959 524.409" stroke="#FFFFFF" stroke-width="0.0755906" stroke-linejoin="round" stroke-miterlimit="10" fill="none" fill-rule="evenodd"/><path d="M730.129 186.898 730.129 524.409" stroke="#FFFFFF" stroke-width="0.0755906" stroke-linejoin="round" stroke-miterlimit="10" fill="none" fill-rule="evenodd"/><path d="M934.299 186.898 934.299 524.409" stroke="#FFFFFF" stroke-width="0.0755906" stroke-linejoin="round" stroke-miterlimit="10" fill="none" fill-rule="evenodd"/><path d="M99.9307 243.213 1138.51 243.213" stroke="#FFFFFF" stroke-width="0.0755906" stroke-linejoin="round" stroke-miterlimit="10" fill="none" fill-rule="evenodd"/><path d="M99.9307 299.49 1138.51 299.49" stroke="#FFFFFF" stroke-width="0.0755906" stroke-linejoin="round" stroke-miterlimit="10" fill="none" fill-rule="evenodd"/><path d="M99.9307 355.767 1138.51 355.767" stroke="#FFFFFF" stroke-width="0.0755906" stroke-linejoin="round" stroke-miterlimit="10" fill="none" fill-rule="evenodd"/><path d="M99.9307 412.044 1138.51 412.044" stroke="#FFFFFF" stroke-width="0.0755906" stroke-linejoin="round" stroke-miterlimit="10" fill="none" fill-rule="evenodd"/><path d="M99.9307 468.208 1138.51 468.208" stroke="#FFFFFF" stroke-width="0.0755906" stroke-linejoin="round" stroke-miterlimit="10" fill="none" fill-rule="evenodd"/><path d="M99.9685 186.898 99.9685 524.409" stroke="#FFFFFF" stroke-width="0.0755906" stroke-linejoin="round" stroke-miterlimit="10" fill="none" fill-rule="evenodd"/><path d="M1138.47 186.898 1138.47 524.409" stroke="#FFFFFF" stroke-width="0.0755906" stroke-linejoin="round" stroke-miterlimit="10" fill="none" fill-rule="evenodd"/><path d="M99.9307 186.935 1138.51 186.935" stroke="#FFFFFF" stroke-width="0.0755906" stroke-linejoin="round" stroke-miterlimit="10" fill="none" fill-rule="evenodd"/><path d="M99.9307 524.372 1138.51 524.372" stroke="#FFFFFF" stroke-width="0.0755906" stroke-linejoin="round" stroke-miterlimit="10" fill="none" fill-rule="evenodd"/><g clip-path="url(#clip1)"><text font-family="Arial,Arial_MSFontService,sans-serif" font-weight="700" font-size="24" transform="translate(109.417 215)">Name</text></g><g clip-path="url(#clip2)"><text font-family="Arial,Arial_MSFontService,sans-serif" font-weight="700" font-size="24" transform="translate(354.368 215)">Type</text></g><g clip-path="url(#clip3)"><text font-family="Arial,Arial_MSFontService,sans-serif" font-weight="700" font-size="24" transform="translate(436.649 215)">Perms</text></g><text font-family="Arial,Arial_MSFontService,sans-serif" font-weight="700" font-size="24" transform="translate(616.057 215)">ID</text><g clip-path="url(#clip4)"><text font-family="Arial,Arial_MSFontService,sans-serif" font-weight="700" font-size="24" transform="translate(876.798 215)">Size</text></g><g clip-path="url(#clip5)"><text font-family="Arial,Arial_MSFontService,sans-serif" font-weight="700" font-size="24" transform="translate(943.748 215)">Content SHA</text></g><text font-family="Arial,Arial_MSFontService,sans-serif" font-weight="700" font-size="24" transform="translate(1091.6 215)">-<tspan x="7.98669" y="0">1</tspan></text><g clip-path="url(#clip6)"><text font-family="Arial,Arial_MSFontService,sans-serif" font-weight="400" font-size="24" transform="translate(109.417 271)">CMakeLists.txt</text></g><g clip-path="url(#clip7)"><text font-family="Arial,Arial_MSFontService,sans-serif" font-weight="400" font-size="24" transform="translate(354.368 271)">f</text></g><g clip-path="url(#clip8)"><text font-family="Arial,Arial_MSFontService,sans-serif" font-weight="400" font-size="24" transform="translate(436.649 271)">rw</text></g><g clip-path="url(#clip9)"><text font-family="Calibri,Calibri_MSFontService,sans-serif" font-weight="400" font-size="24" transform="translate(535.408 271)">204f2d5913e5...</text></g><g clip-path="url(#clip10)"><text font-family="Arial,Arial_MSFontService,sans-serif" font-weight="400" font-size="24" transform="translate(871.465 271)">2065</text></g><g clip-path="url(#clip11)"><text font-family="Calibri,Calibri_MSFontService,sans-serif" font-weight="400" font-size="24" transform="translate(943.748 271)">d2dac246e8ff...</text></g><g clip-path="url(#clip12)"><text font-family="Arial,Arial_MSFontService,sans-serif" font-weight="400" font-size="24" transform="translate(109.417 327)">README.md</text></g><g clip-path="url(#clip13)"><text font-family="Arial,Arial_MSFontService,sans-serif" font-weight="400" font-size="24" transform="translate(354.368 327)">f</text></g><g clip-path="url(#clip14)"><text font-family="Arial,Arial_MSFontService,sans-serif" font-weight="400" font-size="24" transform="translate(436.649 327)">rw</text></g><g clip-path="url(#clip15)"><text font-family="Calibri,Calibri_MSFontService,sans-serif" font-weight="400" font-size="24" transform="translate(535.408 327)">b735a6e5d34e...</text></g><g clip-path="url(#clip16)"><text font-family="Arial,Arial_MSFontService,sans-serif" font-weight="400" font-size="24" transform="translate(871.465 327)">2492</text></g><g clip-path="url(#clip17)"><text font-family="Calibri,Calibri_MSFontService,sans-serif" font-weight="400" font-size="24" transform="translate(943.748 327)">9871bfea77c8...</text></g><g clip-path="url(#clip18)"><text font-family="Arial,Arial_MSFontService,sans-serif" font-weight="400" font-size="24" transform="translate(109.417 384)">docs</text></g><g clip-path="url(#clip19)"><text font-family="Arial,Arial_MSFontService,sans-serif" font-weight="400" font-size="24" transform="translate(354.368 384)">d</text></g><g clip-path="url(#clip20)"><text font-family="Arial,Arial_MSFontService,sans-serif" font-weight="400" font-size="24" transform="translate(436.649 384)">rwx</text></g><g clip-path="url(#clip21)"><text font-family="Calibri,Calibri_MSFontService,sans-serif" font-weight="400" font-size="24" transform="translate(535.408 384)">ce99e711710e...</text></g><g clip-path="url(#clip22)"><text font-family="Arial,Arial_MSFontService,sans-serif" font-weight="400" font-size="24" transform="translate(898.105 384)">14</text></g><g clip-path="url(#clip23)"><text font-family="Arial,Arial_MSFontService,sans-serif" font-weight="400" font-size="24" transform="translate(109.417 440)">install.sh</text></g><g clip-path="url(#clip24)"><text font-family="Arial,Arial_MSFontService,sans-serif" font-weight="400" font-size="24" transform="translate(354.368 440)">f</text></g><g clip-path="url(#clip25)"><text font-family="Arial,Arial_MSFontService,sans-serif" font-weight="400" font-size="24" transform="translate(436.649 440)">rwx</text></g><g clip-path="url(#clip26)"><text font-family="Calibri,Calibri_MSFontService,sans-serif" font-weight="400" font-size="24" transform="translate(535.408 440)">c56ac199bb04...</text></g><g clip-path="url(#clip27)"><text font-family="Arial,Arial_MSFontService,sans-serif" font-weight="400" font-size="24" transform="translate(858.145 440)">14244</text></g><g clip-path="url(#clip28)"><text font-family="Calibri,Calibri_MSFontService,sans-serif" font-weight="400" font-size="24" transform="translate(943.748 440)">f5eedc578bc1...</text></g><g clip-path="url(#clip29)"><text font-family="Arial,Arial_MSFontService,sans-serif" font-weight="400" font-size="24" transform="translate(109.417 496)">src</text></g><g clip-path="url(#clip30)"><text font-family="Arial,Arial_MSFontService,sans-serif" font-weight="400" font-size="24" transform="translate(354.368 496)">d</text></g><g clip-path="url(#clip31)"><text font-family="Arial,Arial_MSFontService,sans-serif" font-weight="400" font-size="24" transform="translate(436.649 496)">rwx</text></g><g clip-path="url(#clip32)"><text font-family="Calibri,Calibri_MSFontService,sans-serif" font-weight="400" font-size="24" transform="translate(535.408 496)">028f5416cfc0...</text></g><g clip-path="url(#clip33)"><text font-family="Arial,Arial_MSFontService,sans-serif" font-weight="400" font-size="24" transform="translate(898.105 496)">57</text></g><rect x="100.5" y="134.5" width="1042" height="48" stroke="#3465A4" stroke-linejoin="round" stroke-miterlimit="10" fill="#5890F0"/><text font-family="Arial,Arial_MSFontService,sans-serif" font-weight="400" font-size="24" transform="translate(342.158 167)">tree: a0674de05c7b8f771768d73122ef9af7ca9ea2af</text></g></svg>