<svg width="1280" height="720" xmlns="http://www.w3.org/2000/svg" xmlns:xlink="http://www.w3.org/1999/xlink" overflow="hidden"><defs><clipPath id="clip0"><path d="M0 0 1280 0 1280 720 0 720Z" fill-rule="evenodd" clip-rule="evenodd"/></clipPath><clipPath id="clip1"><path d="M98 197 286 197 286 399 98 399Z" fill-rule="evenodd" clip-rule="evenodd"/></clipPath><clipPath id="clip2"><path d="M285 197 499 197 499 399 285 399Z" fill-rule="evenodd" clip-rule="evenodd"/></clipPath><clipPath id="clip3"><path d="M498 197 606 197 606 399 498 399Z" fill-rule="evenodd" clip-rule="evenodd"/></clipPath><clipPath id="clip4"><path d="M605 110 703 110 703 515 605 515Z" fill-rule="evenodd" clip-rule="evenodd"/></clipPath><clipPath id="clip5"><path d="M605 110 703 110 703 515 605 515Z" fill-rule="evenodd" clip-rule="evenodd"/></clipPath><clipPath id="clip6"><path d="M98 264 286 264 286 467 98 467Z" fill-rule="evenodd" clip-rule="evenodd"/></clipPath><clipPath id="clip7"><path d="M285 264 499 264 499 467 285 467Z" fill-rule="evenodd" clip-rule="evenodd"/></clipPath><clipPath id="clip8"><path d="M498 264 606 264 606 467 498 467Z" fill-rule="evenodd" clip-rule="evenodd"/></clipPath><clipPath id="clip9"><path d="M98 327 286 327 286 530 98 530Z" fill-rule="evenodd" clip-rule="evenodd"/></clipPath><clipPath id="clip10"><path d="M285 327 499 327 499 530 285 530Z" fill-rule="evenodd" clip-rule="evenodd"/></clipPath><clipPath id="clip11"><path d="M498 327 606 327 606 530 498 530Z" fill-rule="evenodd" clip-rule="evenodd"/></clipPath><clipPath id="clip12"><path d="M98 390 286 390 286 593 98 593Z" fill-rule="evenodd" clip-rule="evenodd"/></clipPath><clipPath id="clip13"><path d="M285 390 499 390 499 593 285 593Z" fill-rule="evenodd" clip-rule="evenodd"/></clipPath><clipPath id="clip14"><path d="M498 390 606 390 606 593 498 593Z" fill-rule="evenodd" clip-rule="evenodd"/></clipPath><clipPath id="clip15"><path d="M98 454 286 454 286 656 98 656Z" fill-rule="evenodd" clip-rule="evenodd"/></clipPath><clipPath id="clip16"><path d="M285 454 499 454 499 656 285 656Z" fill-rule="evenodd" clip-rule="evenodd"/></clipPath><clipPath id="clip17"><path d="M498 454 606 454 606 656 498 656Z" fill-rule="evenodd" clip-rule="evenodd"/></clipPath><clipPath id="clip18"><path d="M98 517 286 517 286 720 98 720Z" fill-rule="evenodd" clip-rule="evenodd"/></clipPath><clipPath id="clip19"><path d="M285 517 499 517 499 720 285 720Z" fill-rule="evenodd" clip-rule="evenodd"/></clipPath><clipPath id="clip20"><path d="M498 517 606 517 606 720 498 720Z" fill-rule="evenodd" clip-rule="evenodd"/></clipPath></defs><g clip-path="url(#clip0)"><rect x="0" y="0" width="1280" height="720" fill="#E9EAED" fill-opacity="0"/><rect x="86.5001" y="144.5" width="634" height="48" stroke="#3465A4" stroke-linejoin="round" stroke-miterlimit="10" fill="#60CE82"/><text font-family="Arial,Arial_MSFontService,sans-serif" font-weight="400" font-size="24" transform="translate(349.04 177)">TreeInode</text><rect x="86.5001" y="192.5" width="634" height="470" stroke="#3465A4" stroke-linejoin="round" stroke-miterlimit="10" fill="#60CE82"/><text font-family="Arial,Arial_MSFontService,sans-serif" font-weight="400" font-size="24" transform="translate(95.8488 220)">Inode #:  97<tspan x="0" y="28">Object ID: </tspan><tspan font-family="Calibri,Calibri_MSFontService,sans-serif" x="113.187" y="28">7fc238d11fa4...</tspan></text><path d="M98.7969 278.854 285.997 278.854 285.997 346.091 98.7969 346.091Z" fill="#B3B3B3" fill-rule="evenodd"/><path d="M285.997 278.854 498.746 278.854 498.746 346.091 285.997 346.091Z" fill="#B3B3B3" fill-rule="evenodd"/><path d="M498.746 278.854 605.065 278.854 605.065 346.091 498.746 346.091Z" fill="#B3B3B3" fill-rule="evenodd"/><path d="M605.065 278.854 702.539 278.854 702.539 346.091 605.065 346.091Z" fill="#B3B3B3" fill-rule="evenodd"/><path d="M98.7969 346.091 285.997 346.091 285.997 409.323 98.7969 409.323Z" fill="#CCCCCC" fill-rule="evenodd"/><path d="M285.997 346.091 498.746 346.091 498.746 409.323 285.997 409.323Z" fill="#CCCCCC" fill-rule="evenodd"/><path d="M498.746 346.091 605.065 346.091 605.065 409.323 498.746 409.323Z" fill="#CCCCCC" fill-rule="evenodd"/><path d="M605.065 346.091 702.539 346.091 702.539 409.323 605.065 409.323Z" fill="#CCCCCC" fill-rule="evenodd"/><path d="M98.7969 409.323 285.997 409.323 285.997 472.554 98.7969 472.554Z" fill="#E6E6E6" fill-rule="evenodd"/><path d="M285.997 409.323 498.746 409.323 498.746 472.554 285.997 472.554Z" fill="#E6E6E6" fill-rule="evenodd"/><path d="M498.746 409.323 605.065 409.323 605.065 472.554 498.746 472.554Z" fill="#E6E6E6" fill-rule="evenodd"/><path d="M605.065 409.323 702.539 409.323 702.539 472.554 605.065 472.554Z" fill="#E6E6E6" fill-rule="evenodd"/><path d="M98.7969 472.554 285.997 472.554 285.997 535.786 98.7969 535.786Z" fill="#CCCCCC" fill-rule="evenodd"/><path d="M285.997 472.554 498.746 472.554 498.746 535.786 285.997 535.786Z" fill="#CCCCCC" fill-rule="evenodd"/><path d="M498.746 472.554 605.065 472.554 605.065 535.786 498.746 535.786Z" fill="#CCCCCC" fill-rule="evenodd"/><path d="M605.065 472.554 702.539 472.554 702.539 535.786 605.065 535.786Z" fill="#CCCCCC" fill-rule="evenodd"/><path d="M98.7969 535.786 285.997 535.786 285.997 599.017 98.7969 599.017Z" fill="#E6E6E6" fill-rule="evenodd"/><path d="M285.997 535.786 498.746 535.786 498.746 599.017 285.997 599.017Z" fill="#E6E6E6" fill-rule="evenodd"/><path d="M498.746 535.786 605.065 535.786 605.065 599.017 498.746 599.017Z" fill="#E6E6E6" fill-rule="evenodd"/><path d="M605.065 535.786 702.539 535.786 702.539 599.017 605.065 599.017Z" fill="#E6E6E6" fill-rule="evenodd"/><path d="M98.7969 599.017 285.997 599.017 285.997 638.022 98.7969 638.022Z" fill="#CCCCCC" fill-rule="evenodd"/><path d="M285.997 599.017 498.746 599.017 498.746 638.022 285.997 638.022Z" fill="#CCCCCC" fill-rule="evenodd"/><path d="M498.746 599.017 605.065 599.017 605.065 638.022 498.746 638.022Z" fill="#CCCCCC" fill-rule="evenodd"/><path d="M605.065 599.017 702.539 599.017 702.539 638.022 605.065 638.022Z" fill="#CCCCCC" fill-rule="evenodd"/><path d="M285.997 278.816 285.997 638.06" stroke="#FFFFFF" stroke-width="0.0755906" stroke-linejoin="round" stroke-miterlimit="10" fill="none" fill-rule="evenodd"/><path d="M498.746 278.816 498.746 638.06" stroke="#FFFFFF" stroke-width="0.0755906" stroke-linejoin="round" stroke-miterlimit="10" fill="none" fill-rule="evenodd"/><path d="M605.065 278.816 605.065 638.06" stroke="#FFFFFF" stroke-width="0.0755906" stroke-linejoin="round" stroke-miterlimit="10" fill="none" fill-rule="evenodd"/><path d="M98.7591 346.091 702.576 346.091" stroke="#FFFFFF" stroke-width="0.0755906" stroke-linejoin="round" stroke-miterlimit="10" fill="none" fill-rule="evenodd"/><path d="M98.7591 409.323 702.576 409.323" stroke="#FFFFFF" stroke-width="0.0755906" stroke-linejoin="round" stroke-miterlimit="10" fill="none" fill-rule="evenodd"/><path d="M98.7591 472.554 702.576 472.554" stroke="#FFFFFF" stroke-width="0.0755906" stroke-linejoin="round" stroke-miterlimit="10" fill="none" fill-rule="evenodd"/><path d="M98.7591 535.786 702.576 535.786" stroke="#FFFFFF" stroke-width="0.0755906" stroke-linejoin="round" stroke-miterlimit="10" fill="none" fill-rule="evenodd"/><path d="M98.7591 599.017 702.576 599.017" stroke="#FFFFFF" stroke-width="0.0755906" stroke-linejoin="round" stroke-miterlimit="10" fill="none" fill-rule="evenodd"/><path d="M98.7969 278.816 98.7969 638.06" stroke="#FFFFFF" stroke-width="0.0755906" stroke-linejoin="round" stroke-miterlimit="10" fill="none" fill-rule="evenodd"/><path d="M702.539 278.816 702.539 638.06" stroke="#FFFFFF" stroke-width="0.0755906" stroke-linejoin="round" stroke-miterlimit="10" fill="none" fill-rule="evenodd"/><path d="M98.7591 278.854 702.576 278.854" stroke="#FFFFFF" stroke-width="0.0755906" stroke-linejoin="round" stroke-miterlimit="10" fill="none" fill-rule="evenodd"/><path d="M98.7591 638.022 702.576 638.022" stroke="#FFFFFF" stroke-width="0.0755906" stroke-linejoin="round" stroke-miterlimit="10" fill="none" fill-rule="evenodd"/><g clip-path="url(#clip1)"><text font-family="Arial,Arial_MSFontService,sans-serif" font-weight="700" font-size="24" transform="translate(108.246 307)">Name</text></g><g clip-path="url(#clip2)"><text font-family="Arial,Arial_MSFontService,sans-serif" font-weight="700" font-size="24" transform="translate(295.446 307)">Object ID</text></g><g clip-path="url(#clip3)"><text font-family="Arial,Arial_MSFontService,sans-serif" font-weight="700" font-size="24" transform="translate(511.622 307)">Inode #</text></g><g clip-path="url(#clip4)"><text font-family="Arial,Arial_MSFontService,sans-serif" font-weight="700" font-size="24" transform="translate(614.513 307)">Inode</text></g><g clip-path="url(#clip5)"><text font-family="Arial,Arial_MSFontService,sans-serif" font-weight="700" font-size="24" transform="translate(614.513 336)">Ptr</text></g><g clip-path="url(#clip6)"><text font-family="Arial,Arial_MSFontService,sans-serif" font-weight="400" font-size="24" transform="translate(108.246 374)">CMakeLists.txt</text></g><g clip-path="url(#clip7)"><text font-family="Calibri,Calibri_MSFontService,sans-serif" font-weight="400" font-size="24" transform="translate(295.446 374)">204f2d5913e5...</text></g><g clip-path="url(#clip8)"><text font-family="Arial,Arial_MSFontService,sans-serif" font-weight="400" font-size="24" transform="translate(555.569 374)">213</text></g><g clip-path="url(#clip9)"><text font-family="Arial,Arial_MSFontService,sans-serif" font-weight="400" font-size="24" transform="translate(108.246 437)">README.md</text></g><g clip-path="url(#clip10)"><text font-family="Calibri,Calibri_MSFontService,sans-serif" font-weight="400" font-size="24" transform="translate(295.446 437)">b735a6e5d34e...</text></g><g clip-path="url(#clip11)"><text font-family="Arial,Arial_MSFontService,sans-serif" font-weight="400" font-size="24" transform="translate(555.569 437)">214</text></g><g clip-path="url(#clip12)"><text font-family="Arial,Arial_MSFontService,sans-serif" font-weight="400" font-size="24" transform="translate(108.246 500)">docs</text></g><g clip-path="url(#clip13)"><text font-family="Calibri,Calibri_MSFontService,sans-serif" font-weight="400" font-size="24" transform="translate(295.446 500)">ce99e711710e...</text></g><g clip-path="url(#clip14)"><text font-family="Arial,Arial_MSFontService,sans-serif" font-weight="400" font-size="24" transform="translate(555.569 500)">215</text></g><g clip-path="url(#clip15)"><text font-family="Arial,Arial_MSFontService,sans-serif" font-weight="400" font-size="24" transform="translate(108.246 564)">install.sh</text></g><g clip-path="url(#clip16)"><text font-family="Calibri,Calibri_MSFontService,sans-serif" font-weight="400" font-size="24" transform="translate(295.446 564)">c56ac199bb04...</text></g><g clip-path="url(#clip17)"><text font-family="Arial,Arial_MSFontService,sans-serif" font-weight="400" font-size="24" transform="translate(555.569 564)">216</text></g><g clip-path="url(#clip18)"><text font-family="Arial,Arial_MSFontService,sans-serif" font-weight="400" font-size="24" transform="translate(108.246 627)">src</text></g><g clip-path="url(#clip19)"><text font-family="Calibri,Calibri_MSFontService,sans-serif" font-weight="400" font-size="24" transform="translate(295.446 627)">028f5416cfc0...</text></g><g clip-path="url(#clip20)"><text font-family="Arial,Arial_MSFontService,sans-serif" font-weight="400" font-size="24" transform="translate(555.569 627)">217</text></g><rect x="854.5" y="595.5" width="125" height="58" stroke="#3465A4" stroke-linejoin="round" stroke-miterlimit="10" fill="#60CE82"/><text font-family="Arial,Arial_MSFontService,sans-serif" font-weight="400" font-size="24" transform="translate(862.64 633)">TreeInode</text><rect x="854.5" y="317.5" width="125" height="57" stroke="#3465A4" stroke-linejoin="round" stroke-miterlimit="10" fill="#54C7EC"/><text font-family="Arial,Arial_MSFontService,sans-serif" font-weight="400" font-size="24" transform="translate(867.527 354)">FileInode</text><rect x="854.5" y="451.5" width="125" height="58" stroke="#3465A4" stroke-linejoin="round" stroke-miterlimit="10" fill="#54C7EC"/><text font-family="Arial,Arial_MSFontService,sans-serif" font-weight="400" font-size="24" transform="translate(867.527 489)">FileInode</text><path d="M0.206365-0.455427 186.134 83.7929 185.721 84.7038-0.206365 0.455427ZM186.364 80.0547 192 87 183.062 87.3416Z" transform="matrix(1 0 0 -1 662.5 557.5)"/><path d="M662.523 605.001 847.864 613.688 847.817 614.687 662.477 606ZM846.696 610.13 854.5 614.5 846.322 618.121Z"/><path d="M0.0928821-0.491297 194.542 36.2702 194.356 37.2528-0.0928821 0.491297ZM193.882 32.5835 201 38 192.396 40.4443Z" transform="matrix(1 0 0 -1 653.5 374.5)"/></g></svg>