<svg width="1280" height="720" xmlns="http://www.w3.org/2000/svg" xmlns:xlink="http://www.w3.org/1999/xlink" overflow="hidden"><defs><clipPath id="clip0"><path d="M0 0 1280 0 1280 720 0 720Z" fill-rule="evenodd" clip-rule="evenodd"/></clipPath></defs><g clip-path="url(#clip0)"><rect x="0" y="0" width="1280" height="720" fill="#E9EAED" fill-opacity="0"/><rect x="106.5" y="451.5" width="1065" height="125" stroke="#3465A4" stroke-linejoin="round" stroke-miterlimit="10" fill="#3B5998"/><text fill="#FFFFFF" font-family="Arial,Arial_MSFontService,sans-serif" font-weight="400" font-size="24" transform="translate(115.049 565)">Linux Kernel</text><path d="M656.644 67.5001C631.072 67.5001 605.5 93.0645 605.5 118.629L605.5 323.296C605.5 348.86 631.072 374.462 656.644 374.462L1005.28 374.462C1030.85 374.462 1056.46 348.86 1056.46 323.296L1056.46 118.629C1056.46 93.0645 1030.85 67.5001 1005.28 67.5001L656.644 67.5001" stroke="#3465A4" stroke-linejoin="round" stroke-miterlimit="10" fill="#5890F0" fill-rule="evenodd"/><text font-family="Arial,Arial_MSFontService,sans-serif" font-weight="400" font-size="24" transform="translate(787.107 95)">EdenFS</text><rect x="634.5" y="432.5" width="76" height="38" stroke="#3465A4" stroke-linejoin="round" stroke-miterlimit="10" fill="#FAA61A"/><text font-family="Arial,Arial_MSFontService,sans-serif" font-weight="400" font-size="24" transform="translate(640.027 460)">FUSE</text><path d="M826.5 624.125C826.5 629.441 867.242 633.75 917.5 633.75 967.758 633.75 1008.5 629.441 1008.5 624.125L1008.5 681.875C1008.5 687.191 967.758 691.5 917.5 691.5 867.242 691.5 826.5 687.191 826.5 681.875Z" fill="#F34F46" fill-rule="evenodd"/><path d="M826.5 624.125C826.5 618.809 867.242 614.5 917.5 614.5 967.758 614.5 1008.5 618.809 1008.5 624.125 1008.5 629.441 967.758 633.75 917.5 633.75 867.242 633.75 826.5 629.441 826.5 624.125Z" fill="#F89590" fill-rule="evenodd"/><path d="M1008.5 624.125C1008.5 629.441 967.758 633.75 917.5 633.75 867.242 633.75 826.5 629.441 826.5 624.125 826.5 618.809 867.242 614.5 917.5 614.5 967.758 614.5 1008.5 618.809 1008.5 624.125ZM1008.5 624.125 1008.5 681.875C1008.5 687.191 967.758 691.5 917.5 691.5 867.242 691.5 826.5 687.191 826.5 681.875L826.5 624.125" stroke="#3465A4" stroke-linejoin="round" stroke-miterlimit="10" fill="none" fill-rule="evenodd"/><text font-family="Arial,Arial_MSFontService,sans-serif" font-weight="400" font-size="24" transform="translate(893.493 666)">Disk</text><path d="M0.5-3.64538e-07 0.5001 137.333-0.4999 137.333-0.5 3.64538e-07ZM4.0001 136 0.000104987 144-3.9999 136Z" transform="matrix(1 0 0 -1 931.5 614.5)"/><rect x="857.5" y="432.5" width="120" height="38" stroke="#3465A4" stroke-linejoin="round" stroke-miterlimit="10" fill="#F34F46"/><text font-family="Arial,Arial_MSFontService,sans-serif" font-weight="400" font-size="24" transform="translate(913.492 460)">/</text><rect x="413.5" y="432.5" width="120" height="38" stroke="#3465A4" stroke-linejoin="round" stroke-miterlimit="10" fill="#F34F46"/><text font-family="Arial,Arial_MSFontService,sans-serif" font-weight="400" font-size="24" transform="translate(426.853 460)">fbsource</text><path d="M480.881 470.133 489.006 478.571 497.106 485.921 505.263 492.27 513.354 497.621 521.505 502.099 529.526 505.641 537.549 508.438 545.446 510.488 553.279 511.854 560.984 512.536 568.567 512.596 575.969 512.159 583.182 511.225 590.275 509.855 597.056 508.113 603.651 505.996 616.116 501.009 627.387 495.34 637.417 489.358 641.833 486.434 645.882 483.568 649.559 480.826 652.802 478.331 655.534 476.033 657.193 474.563 657.895 475.355 656.216 476.843 653.448 479.169 650.191 481.674 646.493 484.432 642.417 487.316 637.959 490.267 627.863 496.285 616.509 501.991 603.974 507.004 597.319 509.138 590.475 510.895 583.318 512.275 576.031 513.216 568.558 513.654 560.891 513.59 553.097 512.896 545.18 511.512 537.201 509.437 529.099 506.609 520.995 503.026 512.771 498.504 504.612 493.105 496.394 486.704 488.244 479.305 480.119 470.867ZM653.878 472.878 662.5 470.5 659.229 478.825Z"/><path d="M405.638 211.5C400.069 211.5 394.5 217.071 394.5 222.642L394.5 267.283C394.5 272.854 400.069 278.462 405.638 278.462L536.287 278.462C541.856 278.462 547.462 272.854 547.462 267.283L547.462 222.642C547.462 217.071 541.856 211.5 536.287 211.5L405.638 211.5" stroke="#3465A4" stroke-linejoin="round" stroke-miterlimit="10" fill="#60CE82" fill-rule="evenodd"/><text font-family="Arial,Arial_MSFontService,sans-serif" font-weight="400" font-size="24" transform="translate(445.093 253)">buck</text><path d="M481.029 278.5 481.029 425.833 479.971 425.833 479.971 278.5ZM484.5 424.5 480.5 432.5 476.5 424.5Z"/><path d="M894 470.5 894 607.833 893 607.833 893 470.5ZM897.5 606.5 893.5 614.5 889.5 606.5Z"/><rect x="634.5" y="125.5" width="393" height="221" stroke="#3465A4" stroke-linejoin="round" stroke-miterlimit="10" fill="#3B5998"/><text fill="#FFFFFF" font-family="Arial,Arial_MSFontService,sans-serif" font-weight="400" font-size="24" transform="translate(769.127 153)">EdenMount</text><rect x="643.5" y="288.5" width="163" height="48" stroke="#3465A4" stroke-linejoin="round" stroke-miterlimit="10" fill="#FAA61A"/><text font-family="Arial,Arial_MSFontService,sans-serif" font-weight="400" font-size="24" transform="translate(653.54 321)">FuseChannel</text><rect x="826.5" y="288.5" width="134" height="48" stroke="#3465A4" stroke-linejoin="round" stroke-miterlimit="10" fill="#F34F46"/><text font-family="Arial,Arial_MSFontService,sans-serif" font-weight="400" font-size="24" transform="translate(851.513 321)">Overlay</text><rect x="643.5" y="163.5" width="240" height="87" stroke="#3465A4" stroke-linejoin="round" stroke-miterlimit="10" fill="#60CE82"/><text font-family="Arial,Arial_MSFontService,sans-serif" font-weight="400" font-size="24" transform="translate(727.24 215)">Inodes</text><rect x="912.5" y="192.5" width="106" height="48" stroke="#3465A4" stroke-linejoin="round" stroke-miterlimit="10" fill="#8C72CB"/><text font-family="Arial,Arial_MSFontService,sans-serif" font-weight="400" font-size="24" transform="translate(925.513 225)">Journal</text><path d="M0.529134-5.78668e-07 0.529232 89.3334-0.529036 89.3334-0.529134 5.78668e-07ZM4.0001 88 0.000104987 96-3.9999 88Z" transform="matrix(1 0 0 -1 662.5 432.5)"/><path d="M0.529134-1.4619e-06 0.52922 31.3333-0.529047 31.3333-0.529134 1.4619e-06ZM4.00008 30 0.000104987 38-3.99992 30Z" transform="matrix(1 0 0 -1 662.5 288.5)"/><path d="M787.761 250.04 848.962 284.751 848.44 285.671 787.239 250.96ZM849.515 281.074 854.5 288.5 845.568 288.033Z"/><path d="M894.029 336.5 894.029 425.833 892.971 425.833 892.971 336.5ZM897.5 424.5 893.5 432.5 889.5 424.5Z"/><path d="M883.5 220.971 905.833 220.971 905.833 222.029 883.5 222.029ZM904.5 217.5 912.5 221.5 904.5 225.5Z"/><path d="M0.529134-5.78668e-07 0.529232 89.3334-0.529036 89.3334-0.529134 5.78668e-07ZM4.0001 88 0.000104987 96-3.9999 88Z" transform="matrix(1 0 0 -1 922.5 432.5)"/><path d="M912.266 288.975 841.244 253.925 841.712 252.976 912.734 288.026ZM840.904 257.627 835.5 250.5 844.444 250.453Z"/><path d="M692.029 250.5 692.029 281.833 690.971 281.833 690.971 250.5ZM695.5 280.5 691.5 288.5 687.5 280.5Z"/><path d="M692.029 336.5 692.029 425.833 690.971 425.833 690.971 336.5ZM695.5 424.5 691.5 432.5 687.5 424.5Z"/><path d="M691.898 470.849 686.523 476.974 681.072 482.739 675.622 488.126 670.171 493.14 659.273 502.096 648.428 509.684 637.579 516.02 626.788 521.104 616.121 525.059 605.514 527.948 595.097 529.895 584.861 530.839 574.757 530.967 564.904 530.341 555.303 529.024 545.955 527.081 536.859 524.573 528.143 521.626 519.74 518.241 511.658 514.608 504.007 510.658 496.802 506.586 489.97 502.324 483.645 498.128 477.755 493.931 472.432 489.923 467.606 486.037 463.407 482.466 459.713 479.21 455.76 475.575 456.476 474.796 460.412 478.416 464.093 481.66 468.269 485.213 473.068 489.077 478.37 493.069 484.23 497.247 490.53 501.426 497.323 505.664 504.493 509.717 512.092 513.642 520.135 517.259 528.482 520.624 537.141 523.552 546.17 526.044 555.447 527.976 564.971 529.284 574.743 529.908 584.764 529.786 594.903 528.855 605.236 526.927 615.754 524.066 626.337 520.146 637.046 515.106 647.822 508.816 658.602 501.279 669.454 492.361 674.878 487.374 680.303 482.012 685.727 476.276 691.102 470.151ZM454.255 478.968 451.375 470.5 459.878 473.276Z"/><path d="M0.529134-3.60728e-07 0.529234 147.333-0.529033 147.333-0.529134 3.60728e-07ZM4.0001 146 0.000104987 154-3.9999 146Z" transform="matrix(1 0 0 -1 451.5 432.5)"/><rect x="226.5" y="432.5" width="120" height="38" stroke="#3465A4" stroke-linejoin="round" stroke-miterlimit="10" fill="#F34F46"/><text font-family="Arial,Arial_MSFontService,sans-serif" font-weight="400" font-size="24" transform="translate(239.653 460)">buck<tspan x="50.6133" y="0">-</tspan><tspan x="58.6" y="0">out</tspan></text><path d="M0.412138-0.331851 120.231 148.475 119.407 149.139-0.412138 0.331851ZM122.098 145.26 124 154 115.867 150.278Z" transform="matrix(-1 -8.74228e-08 -8.74228e-08 1 422.5 278.5)"/><path d="M307.804 470.067 325.366 482.379 343.72 493.99 362.765 504.979 382.496 515.344 402.73 525.086 423.402 534.266 444.513 542.885 465.812 550.943 487.361 558.438 508.975 565.434 530.59 571.931 552.142 577.928 573.446 583.488 594.562 588.611 615.303 593.234 635.608 597.482 655.352 601.356 674.47 604.855 692.901 607.978 710.521 610.79 727.264 613.226 743.01 615.413 757.63 617.288 771.123 618.849 783.372 620.224 794.301 621.286 799.241 621.786 803.801 622.223 807.977 622.535 811.74 622.911 815.102 623.16 818.106 623.41 819.884 623.532 819.812 624.588 818.019 624.465 815.023 624.215 811.635 623.964 807.898 623.59 803.7 623.277 799.134 622.839 794.199 622.339 783.254 621.276 771.002 619.901 757.495 618.337 742.865 616.462 727.111 614.274 710.354 611.835 692.724 609.022 674.28 605.896 655.148 602.394 635.392 598.518 615.072 594.267 594.313 589.639 573.179 584.512 551.858 578.947 530.285 572.944 508.65 566.441 487.014 559.437 465.438 551.932 444.113 543.865 422.973 535.234 402.271 526.039 382.004 516.281 362.236 505.896 343.155 494.885 324.759 483.246 307.196 470.933ZM818.782 619.98 826.5 624.5 818.253 627.963Z"/><path d="M826.477 644.029 796.165 642.716 766.399 640.528 737.258 637.526 708.745 633.837 680.918 629.46 653.779 624.458 627.33 618.956 601.63 612.953 576.679 606.45 552.544 599.634 529.157 592.443 506.648 585.065 484.95 577.437 464.189 569.62 444.305 561.742 425.359 553.864 407.412 545.985 390.406 538.232 374.397 530.603 359.452 523.161 345.509 516.034 332.687 509.154 320.931 502.651 310.364 496.648 300.919 491.081 292.663 486.078 285.596 481.7 279.719 478.011 274.717 474.695 275.301 473.813 280.281 477.114 286.154 480.8 293.212 485.173 301.456 490.169 310.886 495.727 321.444 501.725 333.188 508.221 345.991 515.091 359.923 522.214 374.853 529.647 390.845 537.269 407.838 545.016 425.766 552.886 444.695 560.758 464.561 568.63 485.301 576.438 506.977 584.06 529.468 591.432 552.831 598.616 576.946 605.426 601.87 611.922 627.545 617.919 653.971 623.417 681.082 628.415 708.88 632.788 737.367 636.474 766.476 639.472 796.21 641.659 826.523 642.971ZM273.858 478.311 269.5 470.5 278.363 471.7Z"/><path d="M0.410831-0.333467 121.209 148.49 120.388 149.157-0.410831 0.333467ZM123.064 145.268 125 154 116.853 150.309Z" transform="matrix(1 0 0 -1 278.5 432.5)"/></g></svg>