<svg width="64" height="64" viewBox="0 0 64 64" fill="none" xmlns="http://www.w3.org/2000/svg">
<path d="M58.3177 11.3834C45.853 6.89471 31.9899 8.82139 21.1871 16.5281C10.4047 24.2348 3.97978 36.8196 4.00005 50.2038V51.987L5.68227 52.6019C10.1412 54.2211 14.742 55 19.363 55C27.6526 55 35.861 52.4379 42.8129 47.4778C53.5953 39.7711 60.0202 27.1658 60 13.7815V11.9983L58.3177 11.3834ZM24.1057 20.7094C32.1925 14.9293 42.2656 12.8592 51.8523 14.8679L9.49262 44.6903C10.9316 35.0979 16.181 26.3869 24.1057 20.7094ZM50.5552 31.1831C47.9812 35.9383 44.3735 40.099 39.8943 43.276C31.8075 49.0355 21.7141 51.1057 12.0869 49.097L54.5074 19.2541C53.8993 23.4764 52.5414 27.4937 50.5552 31.1831Z" fill="white"/>
</svg>
