/* XPM */
static char *icon32[] = {
/* width height ncolors chars_per_pixel */
"32 32 3 1",
/* colors */
"  c #000",
". c #FFF",
"X c None",
/* pixels */
"................................",
"................................",
"................................",
"..........      ....  ..........",
"..........       ...  ..........",
"..........  ...   ..  ..........",
"..........  ....  ..  ..........",
"..........  ....  ..  ..........",
"..........  ...   ..  ..........",
"..........  ..   ..   ..........",
"..........  .   ..    ..........",
"..........     ..     ..........",
"..........    ..   .  ..........",
"..........   ..   ..  ..........",
"..........  ..   ...  ..........",
"..........  ..  ....  ..........",
"..........  ..  ....  ..........",
"..........  ..   ...  ..........",
"..........  ...       ..........",
"..........  ....      ..........",
"................................",
"................................",
"..  .. .. . . ...  ...  ...  ...",
". .. . .. .  . . .. . .. . .. ..",
". .... .. . .... .... .. . .....",
". .... .. . .....  ..   ...  ...",
". .... .. . ....... . ....... ..",
". .. . .. . .... .. . .. . .. ..",
"..  ...  .. .....  ...  ...  ...",
"................................",
"................................",
"................................"
};
