/* XPM */
static char *icon64[] = {
/* width height ncolors chars_per_pixel */
"64 64 3 1",
/* colors */
"  c #000",
". c #FFF",
"X c None",
/* pixels */
"................................................................",
"................................................................",
"................................................................",
"................................................................",
"................................................................",
"................................................................",
"................................................................",
"....................            ......    ......................",
"....................             .....    ......................",
"....................              ....    ......................",
"....................              ....    ......................",
"....................    ......     ...    ......................",
"....................    .......    ...    ......................",
"....................    .......    ...    ......................",
"....................    .......    ...    ......................",
"....................    .......    ...    ......................",
"....................    ......     ...    ......................",
"....................    .....     ....    ......................",
"....................    ....      ...     ......................",
"....................    ...      ...      ......................",
"....................    ..      ...       ......................",
"....................    .      ...        ......................",
"....................          ...         ......................",
"....................         ...          ......................",
"....................        ...      .    ......................",
"....................       ...      ..    ......................",
"....................      ...      ...    ......................",
"....................     ...      ....    ......................",
"....................    ....     .....    ......................",
"....................    ...     ......    ......................",
"....................    ...    .......    ......................",
"....................    ...    .......    ......................",
"....................    ...    .......    ......................",
"....................    ...    .......    ......................",
"....................    ...     ......    ......................",
"....................    ....              ......................",
"....................    ....              ......................",
"....................    .....             ......................",
"....................    ......            ......................",
"................................................................",
"................................................................",
"................................................................",
"................................................................",
"......    ... ...... . ..    .....     .....    .....     ......",
".....  ..  .. ...... . .  ..  ...  ...  ...  ..  ...  ...  .....",
"....  ....  . ...... .   ....  .  .....  .  ....  .  .....  ....",
".... ...... . ...... .  ...... . ....... . ...... . ....... ....",
".... ........ ...... . ......... ....... . ...... . ....... ....",
".... ........ ...... . .........  ........ ...... .  ...........",
".... ........ ...... . ..........  ....... ...... ..  ..........",
".... ........ ...... . ...........     ...        ...     ......",
".... ........ ...... . ...............  .. ..............  .....",
".... ........ ...... . ................  . ...............  ....",
".... ........ ...... . ......... ....... . ...... . ....... ....",
".... ...... . ...... . ......... ....... . ...... . ....... ....",
"....  ....  .  ....  . .........  .....  .  ....  .  .....  ....",
".....  ..  ...  ..  .. ..........  ...  ...  ..  ...  ...  .....",
"......    .....    ... ...........     .....    .....     ......",
"................................................................",
"................................................................",
"................................................................",
"................................................................",
"................................................................",
"................................................................"
};
