<?xml version="1.0" encoding="UTF-8"?><svg id="Layer_1" xmlns="http://www.w3.org/2000/svg" viewBox="0 0 49.5 60.75"><defs><style>.cls-1{fill:#015a46;}</style></defs><path class="cls-1" d="M41.52,30.71c-1.75-.62-3.61-.96-5.46-.81-4.56,.36-7.95,2.89-9.82,6.26l-.02-14.02c1.02,.26,2.06,.4,3.09,.4,3.83,0,7.61-1.79,10.03-5.19,1.53-2.14,2.24-4.76,2.24-7.39v-.06c0-.11-.07-.2-.17-.24h0c-2.82-1.01-5.94-1.11-8.75-.06-4.79,1.79-7.8,6.24-7.96,11.11,0,.03-.02,.06-.02,.09v.22s0,.06,0,.09v.54s0,0,0,0v4.53c-1.85-3.39-5.25-5.94-9.79-6.33-1.85-.16-3.71,.17-5.45,.79h0c-.08,.03-.13,.1-.13,.18v.09c0,2.63,.71,5.25,2.23,7.4,2.42,3.41,6.2,5.2,10.03,5.2,1.05,0,2.09-.13,3.12-.4v8.49c0,.17-.02,.35-.02,.52v.54s.03,.01,.03,.01v10.94c.01,.42,.36,.76,.78,.76h0c.42,0,.76-.34,.76-.77v-10.44c1,.26,2.03,.39,3.05,.39,3.83,0,7.61-1.79,10.03-5.19,1.53-2.14,2.24-4.76,2.24-7.39v-.17s-.02-.07-.06-.09h0Zm-6.01-11.66c-2.44,1.72-5.48,2.32-8.37,1.73l12.78-8.9c-.43,2.87-2.01,5.47-4.41,7.17Zm-4.75-6.73c2.44-1.72,5.47-2.33,8.35-1.73l-12.76,8.88c.44-2.86,2.01-5.45,4.41-7.15ZM15.39,30.02c-2.41-1.71-3.99-4.33-4.42-7.21l12.74,8.95c-2.88,.58-5.89-.03-8.32-1.74Zm-3.56-8.48c2.87-.58,5.89,.03,8.31,1.74,2.41,1.7,3.99,4.32,4.41,7.2l-12.73-8.94Zm18.92,11.79c2.44-1.72,5.47-2.33,8.35-1.73l-12.76,8.88c.44-2.86,2.01-5.45,4.41-7.15Zm4.75,6.73c-2.44,1.72-5.48,2.32-8.37,1.73l12.78-8.9c-.43,2.87-2.01,5.47-4.41,7.17Z"/></svg>
